<?xml version="1.0" encoding="UTF-8"?>
<svg xmlns="http://www.w3.org/2000/svg" version="1.1" width="15.002mm" height="12.224mm" viewBox="-7.501 -6.112 15.002 12.224">
<g fill="none" stroke="#000000" stroke-opacity="1" stroke-width="0.1800" stroke-linecap="butt" stroke-linejoin="miter" stroke-miterlimit="4">
<path d="M6.94531, 1.11022e-15 C6.94531, 0.970136 6.94531, 1.93798 6.94531, 2.77813 " /><path d="M6.94531, -2.77813 C6.94531, -1.93798 6.94531, -0.970136 6.94531, 0 " /><path d="M6.94531, -5.55625 L6.94531, -5.54071  L6.94531, -5.49419  L6.94531, -5.41694  L6.94531, -5.3094  L6.94531, -5.17217  L6.94531, -5.00601  L6.94531, -4.81185  L6.94531, -4.59079  L6.94531, -4.34405  L6.94531, -4.07302  L6.94531, -3.77921  L6.94531, -3.46427  L6.94531, -3.12995  L6.94531, -2.77813 " /><path d="M6.94531, 2.77813 L6.94531, 3.12995  L6.94531, 3.46427  L6.94531, 3.77921  L6.94531, 4.07302  L6.94531, 4.34405  L6.94531, 4.59079  L6.94531, 4.81185  L6.94531, 5.00601  L6.94531, 5.17217  L6.94531, 5.3094  L6.94531, 5.41694  L6.94531, 5.49419  L6.94531, 5.54071  L6.94531, 5.55625 " /><path d="M6.94531, 2.77813 C6.94391, 1.8969 6.80286, 1.0162 6.50037, 1.43652e-13 " /><path d="M6.94531, 5.55625 C6.94391, 5.55625 6.80286, 5.55625 6.50037, 5.55625 " /><path d="M6.50037, 5.55625 C6.80286, 4.54005 6.94391, 3.65935 6.94531, 2.77813 " /><path d="M6.50037, -5.55625 C6.80286, -5.55625 6.94391, -5.55625 6.94531, -5.55625 " /><path d="M6.94531, -2.77812 C6.94391, -3.65935 6.80286, -4.54005 6.50037, -5.55625 " /><path d="M6.50037, -1.41664e-13 C6.80286, -1.0162 6.94391, -1.8969 6.94531, -2.77812 " /><path id= "11" d=" M 2.98609 5.55625 L 2.98609 2.70006e-13 " />
<path id= "12" d=" M 6.50037 1.33227e-15 L 2.98609 1.33227e-15 " />
<path id= "13" d=" M 2.98609 5.55625 L 6.50037 5.55625 " />
<path id= "14" d=" M 2.98609 -5.55625 L 6.50037 -5.55625 " />
<path id= "15" d=" M 2.98609 -3.72147e-13 L 2.98609 -5.55625 " />
<path d="M2.57969, 1.33227e-15 L2.57969, 0.590997  L2.57969, 1.17456  L2.57969, 1.74336  L2.57969, 2.29023  L2.57969, 2.8083  L2.57969, 3.29105  L2.57969, 3.73242  L2.57969, 4.12685  L2.57969, 4.46938  L2.57969, 4.75571  L2.57969, 4.98223  L2.57969, 5.1461  L2.57969, 5.24525  L2.57969, 5.27844 " /><path d="M2.57969, -5.27844 Q2.57969, -5.26184 2.57969, -5.24525  Q2.57969, -5.19567 2.57969, -5.1461  Q2.57969, -5.06416 2.57969, -4.98223  Q2.57969, -4.86897 2.57969, -4.75571  Q2.57969, -4.61254 2.57969, -4.46938  Q2.57969, -4.29811 2.57969, -4.12685  Q2.57969, -3.92963 2.57969, -3.73242  Q2.57969, -3.51174 2.57969, -3.29105  Q2.57969, -3.04968 2.57969, -2.8083  Q2.57969, -2.54926 2.57969, -2.29023  Q2.57969, -2.01679 2.57969, -1.74336  Q2.57969, -1.45896 2.57969, -1.17456  Q2.57969, -0.593082 2.57969, 0 " /><path d="M-6.31031, 1.33227e-15 L-6.31031, 0.355487  L-6.31031, 0.706504  L-6.31031, 1.04864  L-6.31031, 1.37758  L-6.31031, 1.6892  L-6.31031, 1.97958  L-6.31031, 2.24506  L-6.31031, 2.48231  L-6.31031, 2.68835  L-6.31031, 2.86058  L-6.31031, 2.99683  L-6.31031, 3.0954  L-6.31031, 3.15504  L-6.31031, 3.175 " /><path d="M-6.31031, -3.175 Q-6.31031, -3.16502 -6.31031, -3.15504  Q-6.31031, -3.12522 -6.31031, -3.0954  Q-6.31031, -3.04611 -6.31031, -2.99683  Q-6.31031, -2.9287 -6.31031, -2.86058  Q-6.31031, -2.77446 -6.31031, -2.68835  Q-6.31031, -2.58533 -6.31031, -2.48231  Q-6.31031, -2.36369 -6.31031, -2.24506  Q-6.31031, -2.11232 -6.31031, -1.97958  Q-6.31031, -1.83439 -6.31031, -1.6892  Q-6.31031, -1.53339 -6.31031, -1.37758  Q-6.31031, -1.21311 -6.31031, -1.04864  Q-6.31031, -0.87757 -6.31031, -0.706504  Q-6.31031, -0.356741 -6.31031, 5.55112e-16 " /><path d="M-6.94531, 1.33227e-15 Q-6.94531, 0.142195 -6.94531, 0.28439  Q-6.94531, 0.567196 -6.94531, 0.838909  Q-6.94531, 0.970487 -6.94531, 1.10206  Q-6.94531, 1.22671 -6.94531, 1.35136  Q-6.94531, 1.46751 -6.94531, 1.58366  Q-6.94531, 1.68986 -6.94531, 1.79605  Q-6.94531, 1.89095 -6.94531, 1.98585  Q-6.94531, 2.06827 -6.94531, 2.15068  Q-6.94531, 2.21957 -6.94531, 2.28846  Q-6.94531, 2.34296 -6.94531, 2.39746  Q-6.94531, 2.43689 -6.94531, 2.47632  Q-6.94531, 2.50017 -6.94531, 2.52403  Q-6.94531, 2.53201 -6.94531, 2.54 " /><path d="M-6.94531, -2.54 Q-6.94531, -2.53201 -6.94531, -2.52403  Q-6.94531, -2.50017 -6.94531, -2.47632  Q-6.94531, -2.43689 -6.94531, -2.39746  Q-6.94531, -2.34296 -6.94531, -2.28846  Q-6.94531, -2.21957 -6.94531, -2.15068  Q-6.94531, -2.06827 -6.94531, -1.98585  Q-6.94531, -1.89095 -6.94531, -1.79605  Q-6.94531, -1.68986 -6.94531, -1.58366  Q-6.94531, -1.46751 -6.94531, -1.35136  Q-6.94531, -1.22671 -6.94531, -1.10206  Q-6.94531, -0.970487 -6.94531, -0.838909  Q-6.94531, -0.702056 -6.94531, -0.565203  Q-6.94531, -0.285393 -6.94531, 7.21645e-16 " /><path id= "1" d=" M 2.98609 -5.27844 L 2.57969 -5.27844 " />
<path id= "2" d=" M 2.98609 5.27844 L 2.57969 5.27844 " />
<path d="M2.20927, 3.175 C2.3054, 3.17462 2.40089, 3.21373 2.46913, 3.28144  C2.53932, 3.34996 2.5801, 3.44733 2.57969, 3.54542 " /><path d="M2.20927, -3.175 C2.3054, -3.17462 2.40089, -3.21373 2.46913, -3.28144  C2.53932, -3.34996 2.5801, -3.44733 2.57969, -3.54542 " /><path id= "5" d=" M 2.20927 -3.175 L -6.31031 -3.175 " />
<path id= "6" d=" M 2.20927 3.175 L -6.31031 3.175 " />
<path id= "7" d=" M -6.94531 2.54 L -6.31031 3.175 " />
<path id= "8" d=" M -6.94531 -2.54 L -6.31031 -3.175 " />
<path d="M2.20927, 1.33227e-15 Q2.20927, 0.356741 2.20927, 0.706504  Q2.20927, 0.87757 2.20927, 1.04864  Q2.20927, 1.21311 2.20927, 1.37758  Q2.20927, 1.53339 2.20927, 1.6892  Q2.20927, 1.83439 2.20927, 1.97958  Q2.20927, 2.11232 2.20927, 2.24506  Q2.20927, 2.36369 2.20927, 2.48231  Q2.20927, 2.58533 2.20927, 2.68835  Q2.20927, 2.77446 2.20927, 2.86058  Q2.20927, 2.9287 2.20927, 2.99683  Q2.20927, 3.04611 2.20927, 3.0954  Q2.20927, 3.12522 2.20927, 3.15504  Q2.20927, 3.16502 2.20927, 3.175 " /><path d="M2.20927, -3.175 Q2.20927, -3.16502 2.20927, -3.15504  Q2.20927, -3.12522 2.20927, -3.0954  Q2.20927, -3.04611 2.20927, -2.99683  Q2.20927, -2.9287 2.20927, -2.86058  Q2.20927, -2.77446 2.20927, -2.68835  Q2.20927, -2.58533 2.20927, -2.48231  Q2.20927, -2.36369 2.20927, -2.24506  Q2.20927, -2.11232 2.20927, -1.97958  Q2.20927, -1.83439 2.20927, -1.6892  Q2.20927, -1.53339 2.20927, -1.37758  Q2.20927, -1.21311 2.20927, -1.04864  Q2.20927, -0.87757 2.20927, -0.706504  Q2.20927, -0.356741 2.20927, 5.55112e-16 " /></g>

</svg>
