<?xml version="1.0" encoding="UTF-8"?>
<svg xmlns="http://www.w3.org/2000/svg" version="1.1" width="16.918mm" height="13.648mm" viewBox="-8.226 -6.824 16.918 13.648">
<g fill="none" stroke="#000000" stroke-opacity="1" stroke-width="0.2030" stroke-linecap="butt" stroke-linejoin="miter" stroke-miterlimit="4">
<path d="M2.5106 3.92886 A5.55625 3.2079 90 0 0 3.94866 5.36693" />
<path d="M1.68033 1.43806 A5.55625 3.2079 90 0 0 2.5106 3.92886" />
<path d="M2.5106 -3.92886 A5.55625 3.2079 90 0 0 1.68033 1.43806" />
<path d="M5.60919 -5.36693 A5.55625 3.2079 90 0 0 2.5106 -3.92886" />
<path d="M7.87752 -1.43806 A5.55625 3.2079 90 0 0 5.60919 -5.36693" />
<path d="M7.04726 3.92886 A5.55625 3.2079 90 0 0 7.87752 -1.43806" />
<path d="M3.94866 5.36693 A5.55625 3.2079 90 0 0 7.04726 3.92886" />
<path d="M3.94866, 5.36693 C3.38005, 5.10356 2.69776, 4.84036 1.79639, 4.53666 " /><path d="M7.04726, 3.92886 C6.6307, 4.64838 6.10037, 5.36747 5.37434, 6.19719 " /><path d="M5.37434, 6.19719 C4.96694, 5.89349 4.51498, 5.63029 3.94866, 5.36693 " /><path d="M7.87752, -1.43806 C8.02843, -0.455181 8.06523, 0.527106 7.99359, 1.66053 " /><path d="M7.99359, 1.66053 C7.76152, 2.49026 7.46153, 3.20934 7.04726, 3.92886 " /><path d="M5.60919, -5.36693 C6.17552, -5.10356 6.62747, -4.84036 7.03488, -4.53666 " /><path d="M7.03488, -4.53666 C7.4572, -3.40323 7.72433, -2.42095 7.87752, -1.43806 " /><path d="M3.45693, -6.19719 C4.35829, -5.89349 5.04058, -5.63029 5.60919, -5.36693 " /><path d="M2.5106, -3.92886 C2.92487, -4.64838 3.22487, -5.36747 3.45693, -6.19719 " /><path d="M0.837685, -1.66053 C1.56371, -2.49026 2.09404, -3.20934 2.5106, -3.92886 " /><path d="M1.68033, 1.43806 C1.52714, 0.455181 1.26001, -0.527106 0.837685, -1.66053 " /><path d="M1.79639, 4.53666 C1.86803, 3.40323 1.83124, 2.42095 1.68033, 1.43806 " /><path id= "20" d=" M 2.50494 6.19719 L -1.07301 4.53666 " />
<path id= "21" d=" M 1.79639 4.53666 L -1.07301 4.53666 " />
<path id= "22" d=" M 2.50494 6.19719 L 5.37434 6.19719 " />
<path id= "23" d=" M 0.587524 -6.19719 L 3.45693 -6.19719 " />
<path id= "24" d=" M -2.03172 -1.66053 L 0.587524 -6.19719 " />
<path id= "25" d=" M -2.03172 -1.66053 L 0.837685 -1.66053 " />
<path id= "26" d=" M -1.07301 4.53666 L -2.03172 -1.66053 " />
<path d="M-0.415261 -4.46032 A5.27844 3.04751 90 0 0 -1.36076 -2.82267" />
<path d="M-1.8269 -0.336557 A5.27844 3.04751 90 0 0 -1.32228 2.92532" />
<path d="M-7.34043 2.24506 A3.175 1.83309 90 0 0 -6.04425 3.175" />
<path d="M-6.04425 -3.175 A3.175 1.83309 90 0 0 -7.34043 -2.24506" />
<path d="M-7.34043 -2.24506 A3.175 1.83309 90 0 0 -7.34043 2.24506" />
<path id= "32" d=" M -7.34043 2.24506 L -7.59967 1.79605 " />
<path d="M-7.59967 -1.79605 A2.54 1.46647 90 0 0 -7.59967 1.79605" />
<path id= "1" d=" M -1.22015 -3.175 L -6.04425 -3.175 " />
<path id= "2" d=" M -1.28366 3.175 L -6.04425 3.175 " />
<path id= "3" d=" M -7.59967 -1.79605 L -7.34043 -2.24506 " />
</g>

</svg>
