<?xml version="1.0" encoding="UTF-8"?>
<svg xmlns="http://www.w3.org/2000/svg" version="1.1" width="12.014mm" height="13.716mm" viewBox="-6.007 -6.858 12.014 13.716">
<g fill="none" stroke="#000000" stroke-opacity="1" stroke-width="0.1646" stroke-linecap="butt" stroke-linejoin="miter" stroke-miterlimit="4">
<circle cx ="8.88178e-16" cy ="1.64313e-14" r ="2.48759" /><circle cx ="8.88178e-16" cy ="1.64313e-14" r ="3.4925" /><path d="M8.88178e-16 5.4991 A5.4991 5.4991 0 0 0 2.74955 4.76236" /><path d="M-2.74955 4.76236 A5.4991 5.4991 0 0 0 -4.58713e-16 5.4991" /><path d="M-5.4991 -1.41171e-08 A5.4991 5.4991 0 0 0 -2.74955 4.76236" /><path d="M-2.74955 -4.76236 A5.4991 5.4991 0 0 0 -5.4991 -1.41171e-08" /><path d="M2.74955 -4.76236 A5.4991 5.4991 0 0 0 -2.74955 -4.76236" /><path d="M5.4991 1.34436e-08 A5.4991 5.4991 0 0 0 2.74955 -4.76236" /><path d="M2.74955 4.76236 A5.4991 5.4991 0 0 0 5.4991 1.34436e-08" /><path d="M2.74955, 4.76236 C1.87739, 5.2659 1.00575, 5.76914 5.05818e-13, 6.34981 " /><path d="M5.4991, 1.34436e-08 C5.4991, 1.00709 5.4991, 2.01357 5.4991, 3.17491 " /><path d="M5.4991, 3.17491 C4.49335, 3.75558 3.62171, 4.25882 2.74955, 4.76236 " /><path d="M2.74955, -4.76236 C3.62171, -4.25882 4.49335, -3.75558 5.4991, -3.17491 " /><path d="M5.4991, -3.17491 C5.4991, -2.01357 5.4991, -1.00709 5.4991, 1.34436e-08 " /><path d="M-2.74955, -4.76236 C-1.87739, -5.2659 -1.00575, -5.76914 -4.4631e-13, -6.34981 " /><path d="M5.64437e-13, -6.34981 C1.00575, -5.76914 1.87739, -5.2659 2.74955, -4.76236 " /><path d="M-5.4991, -3.17491 C-4.49335, -3.75558 -3.62171, -4.25882 -2.74955, -4.76236 " /><path d="M-5.4991, -1.41171e-08 C-5.4991, -1.00709 -5.4991, -2.01357 -5.4991, -3.17491 " /><path d="M-5.4991, 3.17491 C-5.4991, 2.01357 -5.4991, 1.00709 -5.4991, -1.41171e-08 " /><path d="M-2.74955, 4.76236 C-3.62171, 4.25882 -4.49335, 3.75558 -5.4991, 3.17491 " /><path d="M-5.04041e-13, 6.34981 C-1.00575, 5.76914 -1.87739, 5.2659 -2.74955, 4.76236 " /></g>

</svg>
