<?xml version="1.0" encoding="UTF-8"?>
<svg xmlns="http://www.w3.org/2000/svg" version="1.1" width="10.502mm" height="10.435mm" viewBox="-5.254 -5.206 10.502 10.435">
<g fill="none" stroke="#000000" stroke-opacity="1" stroke-width="0.7" stroke-linecap="butt" stroke-linejoin="miter" stroke-miterlimit="4">
<circle cx ="0" cy ="-5e-08" r ="2" /><circle cx ="0" cy ="-5e-08" r ="1.6" /><path d="M0, -4.7 C0.713605, -4.70064 1.42717, -4.53521 2.06772, -4.22074  C2.70879, -3.90734 3.27686, -3.44491 3.71373, -2.88066  C4.1516, -2.31719 4.45824, -1.65198 4.60235, -0.953102  C4.74765, -0.254471 4.73042, 0.477815 4.55234, 1.16884  C4.37549, 1.86019 4.0378, 2.51019 3.57391, 3.05241  C3.11094, 3.59541 2.52176, 4.03062 1.8666, 4.31345  C1.21193, 4.59744 0.491357, 4.729 -0.221401, 4.69479  C-0.934215, 4.66178 -1.63921, 4.46298 -2.26424, 4.11864  C-2.88989, 3.77542 -3.43549, 3.28669 -3.84531, 2.70253  C-4.25611, 2.11906 -4.53113, 1.44016 -4.64214, 0.735242  C-4.7544, 0.030522 -4.70263, -0.700135 -4.49223, -1.38199  C-4.28299, -2.0642 -3.91511, -2.69761 -3.42615, -3.21737  C-2.55295, -4.15571 -1.28176, -4.7058 0, -4.7 " /><circle cx ="0" cy ="-5e-08" r ="4.3" /><circle cx ="0" cy ="-5e-08" r ="2.2" /></g>

</svg>
