<?xml version="1.0" encoding="UTF-8"?>
<svg xmlns="http://www.w3.org/2000/svg" version="1.1" width="9.200mm" height="8.600mm" viewBox="-4.600 -4.300 9.200 8.600">
<g fill="none" stroke="#000000" stroke-opacity="1" stroke-width="0.1104" stroke-linecap="butt" stroke-linejoin="miter" stroke-miterlimit="4">
<path d="M1.9, 0 Q1.9, 0.426965 1.9, 0.84558  Q1.9, 1.05032 1.9, 1.25506  Q1.9, 1.45191 1.9, 1.64876  Q1.9, 1.83524 1.9, 2.02172  Q1.9, 2.19549 1.9, 2.36926  Q1.9, 2.52813 1.9, 2.68701  Q1.9, 2.82898 1.9, 2.97096  Q1.9, 3.09426 1.9, 3.21755  Q1.9, 3.32062 1.9, 3.42368  Q1.9, 3.50522 1.9, 3.58676  Q1.9, 3.64574 1.9, 3.70473  Q1.9, 3.74042 1.9, 3.77611  Q1.9, 3.78805 1.9, 3.8 " /><path d="M1.9, -3.8 L1.9, -3.77611  L1.9, -3.70473  L1.9, -3.58676  L1.9, -3.42368  L1.9, -3.21755  L1.9, -2.97096  L1.9, -2.68701  L1.9, -2.36926  L1.9, -2.02172  L1.9, -1.64876  L1.9, -1.25506  L1.9, -0.84558  L1.9, -0.425465  L1.9, -9.4369e-16 " /><path d="M4.1, -1.4738 Q4.1, -1.46917 4.1, -1.46454  Q4.1, -1.45069 4.1, -1.43685  Q4.1, -1.41397 4.1, -1.3911  Q4.1, -1.35947 4.1, -1.32785  Q4.1, -1.28788 4.1, -1.2479  Q4.1, -1.20008 4.1, -1.15226  Q4.1, -1.0972 4.1, -1.04214  Q4.1, -0.980518 4.1, -0.918901  Q4.1, -0.851505 4.1, -0.78411  Q4.1, -0.711784 4.1, -0.639459  Q4.1, -0.488482 4.1, -0.327952  Q4.1, -0.165595 4.1, -3.60822e-16 " /><path d="M4.1, 0 Q4.1, 0.165595 4.1, 0.327952  Q4.1, 0.488482 4.1, 0.639459  Q4.1, 0.711784 4.1, 0.78411  Q4.1, 0.851505 4.1, 0.918901  Q4.1, 0.980518 4.1, 1.04214  Q4.1, 1.0972 4.1, 1.15226  Q4.1, 1.20008 4.1, 1.2479  Q4.1, 1.28788 4.1, 1.32785  Q4.1, 1.35947 4.1, 1.3911  Q4.1, 1.41397 4.1, 1.43685  Q4.1, 1.45069 4.1, 1.46454  Q4.1, 1.46917 4.1, 1.4738 " /><path d="M-3.7, 0 C-3.7, 0.224696 -3.7, 0.447287 -3.7, 0.660558  C-3.7, 0.729628 -3.7, 0.798698 -3.7, 0.867767  C-3.7, 0.9332 -3.7, 0.998632 -3.7, 1.06406  C-3.7, 1.12504 -3.7, 1.18601 -3.7, 1.24698  C-3.7, 1.30272 -3.7, 1.35847 -3.7, 1.41421  C-3.7, 1.46403 -3.7, 1.51385 -3.7, 1.56366  C-3.7, 1.60692 -3.7, 1.65019 -3.7, 1.69345  C-3.7, 1.72961 -3.7, 1.76577 -3.7, 1.80194  C-3.7, 1.83055 -3.7, 1.85916 -3.7, 1.88777  C-3.7, 1.90846 -3.7, 1.92916 -3.7, 1.94986  C-3.7, 1.96238 -3.7, 1.9749 -3.7, 1.98742  C-3.7, 1.99162 -3.7, 1.99581 -3.7, 2 " /><path d="M-3.7, -2 Q-3.7, -1.99371 -3.7, -1.98742  Q-3.7, -1.96864 -3.7, -1.94986  Q-3.7, -1.91881 -3.7, -1.88777  Q-3.7, -1.84485 -3.7, -1.80194  Q-3.7, -1.74769 -3.7, -1.69345  Q-3.7, -1.62856 -3.7, -1.56366  Q-3.7, -1.48894 -3.7, -1.41421  Q-3.7, -1.3306 -3.7, -1.24698  Q-3.7, -1.15552 -3.7, -1.06406  Q-3.7, -0.965916 -3.7, -0.867767  Q-3.7, -0.764163 -3.7, -0.660558  Q-3.7, -0.5528 -3.7, -0.445042  Q-3.7, -0.224719 -3.7, -4.996e-16 " /><path d="M-4.1, 0 C-4.1, 0.179757 -4.1, 0.357829 -4.1, 0.528446  C-4.1, 0.583702 -4.1, 0.638958 -4.1, 0.694214  C-4.1, 0.74656 -4.1, 0.798906 -4.1, 0.851251  C-4.1, 0.900029 -4.1, 0.948806 -4.1, 0.997584  C-4.1, 1.04218 -4.1, 1.08678 -4.1, 1.13137  C-4.1, 1.17122 -4.1, 1.21108 -4.1, 1.25093  C-4.1, 1.28554 -4.1, 1.32015 -4.1, 1.35476  C-4.1, 1.38369 -4.1, 1.41262 -4.1, 1.44155  C-4.1, 1.46444 -4.1, 1.48733 -4.1, 1.51021  C-4.1, 1.52677 -4.1, 1.54333 -4.1, 1.55988  C-4.1, 1.5699 -4.1, 1.57992 -4.1, 1.58994  C-4.1, 1.59329 -4.1, 1.59665 -4.1, 1.6 " /><path d="M-4.1, -1.6 Q-4.1, -1.59497 -4.1, -1.58994  Q-4.1, -1.57491 -4.1, -1.55988  Q-4.1, -1.53505 -4.1, -1.51021  Q-4.1, -1.47588 -4.1, -1.44155  Q-4.1, -1.39815 -4.1, -1.35476  Q-4.1, -1.30284 -4.1, -1.25093  Q-4.1, -1.19115 -4.1, -1.13137  Q-4.1, -1.06448 -4.1, -0.997584  Q-4.1, -0.924418 -4.1, -0.851251  Q-4.1, -0.772733 -4.1, -0.694214  Q-4.1, -0.53031 -4.1, -0.356033  Q-4.1, -0.179775 -4.1, -3.88578e-16 " /><path d="M1.9 3.8 A4.15811 4.15811 0 0 0 4.1 1.4738" /><path d="M4.1 -1.4738 A4.15811 4.15811 0 0 0 1.9 -3.8" /><path d="M1.7, 2 C1.80502, 1.99687 1.90238, 2.09128 1.9, 2.2 " /><path d="M1.7, -2 C1.80502, -1.99687 1.90238, -2.09128 1.9, -2.2 " /><path id= "5" d=" M 1.7 -2 L -3.7 -2 " />
<path id= "6" d=" M 1.7 2 L -3.7 2 " />
<path id= "7" d=" M -4.1 1.6 L -3.7 2 " />
<path id= "8" d=" M -4.1 -1.6 L -3.7 -2 " />
<path d="M1.7, 0 C1.7, 0.224696 1.7, 0.447287 1.7, 0.660558  C1.7, 0.729628 1.7, 0.798698 1.7, 0.867767  C1.7, 0.9332 1.7, 0.998632 1.7, 1.06406  C1.7, 1.12504 1.7, 1.18601 1.7, 1.24698  C1.7, 1.30272 1.7, 1.35847 1.7, 1.41421  C1.7, 1.46403 1.7, 1.51385 1.7, 1.56366  C1.7, 1.60692 1.7, 1.65019 1.7, 1.69345  C1.7, 1.72961 1.7, 1.76577 1.7, 1.80194  C1.7, 1.83055 1.7, 1.85916 1.7, 1.88777  C1.7, 1.90846 1.7, 1.92916 1.7, 1.94986  C1.7, 1.96238 1.7, 1.9749 1.7, 1.98742  C1.7, 1.99162 1.7, 1.99581 1.7, 2 " /><path d="M1.7, -2 Q1.7, -1.99371 1.7, -1.98742  Q1.7, -1.96864 1.7, -1.94986  Q1.7, -1.91881 1.7, -1.88777  Q1.7, -1.84485 1.7, -1.80194  Q1.7, -1.74769 1.7, -1.69345  Q1.7, -1.62856 1.7, -1.56366  Q1.7, -1.48894 1.7, -1.41421  Q1.7, -1.3306 1.7, -1.24698  Q1.7, -1.15552 1.7, -1.06406  Q1.7, -0.965916 1.7, -0.867767  Q1.7, -0.764163 1.7, -0.660558  Q1.7, -0.5528 1.7, -0.445042  Q1.7, -0.224719 1.7, -4.996e-16 " /></g>

</svg>
