<?xml version="1.0" encoding="UTF-8"?>
<svg xmlns="http://www.w3.org/2000/svg" version="1.1" width="24.100mm" height="19.524mm" viewBox="-9.100 -9.739 24.100 19.524">
<g fill="none" stroke="#000000" stroke-opacity="1" stroke-width="0.7" stroke-linecap="butt" stroke-linejoin="miter" stroke-miterlimit="4">
<path d="M2.7, 0 Q2.7, 0.404494 2.7, 0.801075  Q2.7, 0.99504 2.7, 1.189  Q2.7, 1.37549 2.7, 1.56198  Q2.7, 1.73865 2.7, 1.91532  Q2.7, 2.07994 2.7, 2.24456  Q2.7, 2.39507 2.7, 2.54558  Q2.7, 2.68009 2.7, 2.81459  Q2.7, 2.9314 2.7, 3.04821  Q2.7, 3.14585 2.7, 3.24349  Q2.7, 3.32073 2.7, 3.39798  Q2.7, 3.45386 2.7, 3.50974  Q2.7, 3.54355 2.7, 3.57736  Q2.7, 3.58868 2.7, 3.6 " /><path d="M4.1, -1.4738 Q4.1, -1.46917 4.1, -1.46454  Q4.1, -1.45069 4.1, -1.43685  Q4.1, -1.41397 4.1, -1.3911  Q4.1, -1.35947 4.1, -1.32785  Q4.1, -1.28788 4.1, -1.2479  Q4.1, -1.20008 4.1, -1.15226  Q4.1, -1.0972 4.1, -1.04214  Q4.1, -0.980518 4.1, -0.918901  Q4.1, -0.851505 4.1, -0.78411  Q4.1, -0.711784 4.1, -0.639459  Q4.1, -0.563112 4.1, -0.486766  Q4.1, -0.249697 4.1, -3.60822e-16 " /><path d="M4.1, 0 Q4.1, 0.249697 4.1, 0.486766  Q4.1, 0.563112 4.1, 0.639459  Q4.1, 0.711784 4.1, 0.78411  Q4.1, 0.851505 4.1, 0.918901  Q4.1, 0.980518 4.1, 1.04214  Q4.1, 1.0972 4.1, 1.15226  Q4.1, 1.20008 4.1, 1.2479  Q4.1, 1.28788 4.1, 1.32785  Q4.1, 1.35947 4.1, 1.3911  Q4.1, 1.41397 4.1, 1.43685  Q4.1, 1.45069 4.1, 1.46454  Q4.1, 1.46917 4.1, 1.4738 " /><path d="M2.7, 0 L2.7, 0.481447  L2.7, 0.95684  L2.7, 1.4202  L2.7, 1.8657  L2.7, 2.28774  L2.7, 2.68101  L2.7, 3.04056  L2.7, 3.36188  L2.7, 3.64091  L2.7, 3.87417  L2.7, 4.0587  L2.7, 4.19219  L2.7, 4.27296  L2.7, 4.3 " /><path d="M2.7, -4.3 Q2.7, -4.28648 2.7, -4.27296  Q2.7, -4.23258 2.7, -4.19219  Q2.7, -4.12544 2.7, -4.0587  Q2.7, -3.96643 2.7, -3.87417  Q2.7, -3.75754 2.7, -3.64091  Q2.7, -3.50139 2.7, -3.36188  Q2.7, -3.20122 2.7, -3.04056  Q2.7, -2.86078 2.7, -2.68101  Q2.7, -2.48437 2.7, -2.28774  Q2.7, -2.07672 2.7, -1.8657  Q2.7, -1.64295 2.7, -1.4202  Q2.7, -1.18852 2.7, -0.95684  Q2.7, -0.483145 2.7, -1.05471e-15 " /><path d="M1.9, 0 L1.9, 0.481447  L1.9, 0.95684  L1.9, 1.4202  L1.9, 1.8657  L1.9, 2.28774  L1.9, 2.68101  L1.9, 3.04056  L1.9, 3.36188  L1.9, 3.64091  L1.9, 3.87417  L1.9, 4.0587  L1.9, 4.19219  L1.9, 4.27296  L1.9, 4.3 " /><path d="M1.9, -4.3 Q1.9, -4.28648 1.9, -4.27296  Q1.9, -4.23258 1.9, -4.19219  Q1.9, -4.12544 1.9, -4.0587  Q1.9, -3.96643 1.9, -3.87417  Q1.9, -3.75754 1.9, -3.64091  Q1.9, -3.50139 1.9, -3.36188  Q1.9, -3.20122 1.9, -3.04056  Q1.9, -2.86078 1.9, -2.68101  Q1.9, -2.48437 1.9, -2.28774  Q1.9, -2.07672 1.9, -1.8657  Q1.9, -1.64295 1.9, -1.4202  Q1.9, -1.18852 1.9, -0.95684  Q1.9, -0.483145 1.9, -1.05471e-15 " /><path d="M-3.7, 0 C-3.7, 0.224696 -3.7, 0.447287 -3.7, 0.660558  C-3.7, 0.729628 -3.7, 0.798698 -3.7, 0.867767  C-3.7, 0.9332 -3.7, 0.998632 -3.7, 1.06406  C-3.7, 1.12504 -3.7, 1.18601 -3.7, 1.24698  C-3.7, 1.30272 -3.7, 1.35847 -3.7, 1.41421  C-3.7, 1.46403 -3.7, 1.51385 -3.7, 1.56366  C-3.7, 1.60692 -3.7, 1.65019 -3.7, 1.69345  C-3.7, 1.72961 -3.7, 1.76577 -3.7, 1.80194  C-3.7, 1.83055 -3.7, 1.85916 -3.7, 1.88777  C-3.7, 1.90846 -3.7, 1.92916 -3.7, 1.94986  C-3.7, 1.96238 -3.7, 1.9749 -3.7, 1.98742  C-3.7, 1.99162 -3.7, 1.99581 -3.7, 2 " /><path d="M-3.7, -2 Q-3.7, -1.99371 -3.7, -1.98742  Q-3.7, -1.96864 -3.7, -1.94986  Q-3.7, -1.91881 -3.7, -1.88777  Q-3.7, -1.84485 -3.7, -1.80194  Q-3.7, -1.74769 -3.7, -1.69345  Q-3.7, -1.62856 -3.7, -1.56366  Q-3.7, -1.48894 -3.7, -1.41421  Q-3.7, -1.3306 -3.7, -1.24698  Q-3.7, -1.15552 -3.7, -1.06406  Q-3.7, -0.965916 -3.7, -0.867767  Q-3.7, -0.764163 -3.7, -0.660558  Q-3.7, -0.5528 -3.7, -0.445042  Q-3.7, -0.224719 -3.7, -4.996e-16 " /><path d="M-4.1, 0 C-4.1, 0.179757 -4.1, 0.357829 -4.1, 0.528446  C-4.1, 0.583702 -4.1, 0.638958 -4.1, 0.694214  C-4.1, 0.74656 -4.1, 0.798906 -4.1, 0.851251  C-4.1, 0.900029 -4.1, 0.948806 -4.1, 0.997584  C-4.1, 1.04218 -4.1, 1.08678 -4.1, 1.13137  C-4.1, 1.17122 -4.1, 1.21108 -4.1, 1.25093  C-4.1, 1.28554 -4.1, 1.32015 -4.1, 1.35476  C-4.1, 1.38369 -4.1, 1.41262 -4.1, 1.44155  C-4.1, 1.46444 -4.1, 1.48733 -4.1, 1.51021  C-4.1, 1.52677 -4.1, 1.54333 -4.1, 1.55988  C-4.1, 1.5699 -4.1, 1.57992 -4.1, 1.58994  C-4.1, 1.59329 -4.1, 1.59665 -4.1, 1.6 " /><path d="M-4.1, -1.6 Q-4.1, -1.59497 -4.1, -1.58994  Q-4.1, -1.57491 -4.1, -1.55988  Q-4.1, -1.53505 -4.1, -1.51021  Q-4.1, -1.47588 -4.1, -1.44155  Q-4.1, -1.39815 -4.1, -1.35476  Q-4.1, -1.30284 -4.1, -1.25093  Q-4.1, -1.19115 -4.1, -1.13137  Q-4.1, -1.06448 -4.1, -0.997584  Q-4.1, -0.924418 -4.1, -0.851251  Q-4.1, -0.772733 -4.1, -0.694214  Q-4.1, -0.53031 -4.1, -0.356033  Q-4.1, -0.179775 -4.1, -3.88578e-16 " /><path d="M2.7 3.6 A4.78543 4.78543 0 0 0 4.1 1.4738" /><path d="M4.1 -1.4738 A4.78543 4.78543 0 0 0 2.7 -3.6" /><path d="M2.7, -4.3 C2.70282, -4.47496 2.5766, -4.64113 2.4073, -4.68534  C2.22845, -4.7388 2.0213, -4.6464 1.94159, -4.4776  C1.91406, -4.4216 1.90019, -4.3624 1.9, -4.3 " /><path d="M1.9, 4.3 C1.89717, 4.475 2.02347, 4.64122 2.19284, 4.68538  C2.22529, 4.69439 2.25836, 4.69923 2.29204, 4.69992  C2.44365, 4.70464 2.59269, 4.61416 2.65847, 4.47748  C2.68596, 4.42151 2.69981, 4.36235 2.7, 4.3 " /><path d="M1.7, 2 C1.80502, 1.99687 1.90238, 2.09128 1.9, 2.2 " /><path d="M1.7, -2 C1.80502, -1.99687 1.90238, -2.09128 1.9, -2.2 " /><path id= "7" d=" M 1.7 -2 L -3.7 -2 " />
<path id= "8" d=" M 1.7 2 L -3.7 2 " />
<path id= "9" d=" M -4.1 1.6 L -3.7 2 " />
<path id= "10" d=" M -4.1 -1.6 L -3.7 -2 " />
<path d="M1.7, 0 C1.7, 0.224696 1.7, 0.447287 1.7, 0.660558  C1.7, 0.729628 1.7, 0.798698 1.7, 0.867767  C1.7, 0.9332 1.7, 0.998632 1.7, 1.06406  C1.7, 1.12504 1.7, 1.18601 1.7, 1.24698  C1.7, 1.30272 1.7, 1.35847 1.7, 1.41421  C1.7, 1.46403 1.7, 1.51385 1.7, 1.56366  C1.7, 1.60692 1.7, 1.65019 1.7, 1.69345  C1.7, 1.72961 1.7, 1.76577 1.7, 1.80194  C1.7, 1.83055 1.7, 1.85916 1.7, 1.88777  C1.7, 1.90846 1.7, 1.92916 1.7, 1.94986  C1.7, 1.96238 1.7, 1.9749 1.7, 1.98742  C1.7, 1.99162 1.7, 1.99581 1.7, 2 " /><path d="M1.7, -2 Q1.7, -1.99371 1.7, -1.98742  Q1.7, -1.96864 1.7, -1.94986  Q1.7, -1.91881 1.7, -1.88777  Q1.7, -1.84485 1.7, -1.80194  Q1.7, -1.74769 1.7, -1.69345  Q1.7, -1.62856 1.7, -1.56366  Q1.7, -1.48894 1.7, -1.41421  Q1.7, -1.3306 1.7, -1.24698  Q1.7, -1.15552 1.7, -1.06406  Q1.7, -0.965916 1.7, -0.867767  Q1.7, -0.764163 1.7, -0.660558  Q1.7, -0.5528 1.7, -0.445042  Q1.7, -0.224719 1.7, -4.996e-16 " /></g>

</svg>
