<?xml version="1.0" encoding="UTF-8"?>
<svg xmlns="http://www.w3.org/2000/svg" version="1.1" width="9.160mm" height="8.215mm" viewBox="-4.531 -4.108 9.160 8.215">
<g fill="none" stroke="#000000" stroke-opacity="1" stroke-width="0.7" stroke-linecap="butt" stroke-linejoin="miter" stroke-miterlimit="4">
<path d="M-0.0298403 2.68701 A3.8 2.19393 90 0 0 2.21069 3.60764" />
<path d="M2.21069 -3.60764 A3.8 2.19393 90 0 0 -0.0298403 2.68701" />
<path d="M3.91947 -1.04214 A1.4738 0.8509 90 0 0 2.71612 -1.04214" />
<path d="M2.71612 -1.04214 A1.4738 0.8509 90 0 0 2.71612 1.04214" />
<path d="M2.71612 1.04214 A1.4738 0.8509 90 0 0 3.91947 -1.04214" />
<path d="M3.53094, 1.4165 C3.5319, 1.22724 3.57606, 1.06241 3.66987, 0.898026  C3.6979, 0.851079 3.7294, 0.803905 3.76437, 0.756506  C3.80137, 0.708852 3.84218, 0.660515 3.8868, 0.611493  C3.911, 0.586517 3.9352, 0.561541 3.9594, 0.536564  C3.98633, 0.510846 4.01325, 0.485127 4.04018, 0.459409  C4.07, 0.432789 4.09981, 0.40617 4.12963, 0.37955 " /><path d="M4.12963, 0.37955 C4.10955, 0.343187 4.08948, 0.306825 4.06941, 0.270462  C4.0519, 0.23533 4.03439, 0.200197 4.01688, 0.165065  C3.98543, 0.0963775 3.95768, 0.0289448 3.9336, -0.0372332  C3.92318, -0.0699491 3.91276, -0.102665 3.90235, -0.135381  C3.88473, -0.20013 3.8705, -0.264569 3.85964, -0.3287  C3.82601, -0.553256 3.84217, -0.77841 3.91049, -1.03695 " /><path d="M3.91049, -1.03695 C3.87505, -1.04669 3.83961, -1.05644 3.80417, -1.06618  C3.77181, -1.07559 3.73945, -1.08501 3.70709, -1.09442  C3.67761, -1.10356 3.64813, -1.11271 3.61865, -1.12185  C3.56367, -1.13979 3.51265, -1.15748 3.46558, -1.17493  C3.42059, -1.19228 3.37912, -1.20954 3.34117, -1.22673  C3.21262, -1.2869 3.13363, -1.34723 3.09268, -1.4165 " /><path d="M3.09268, -1.4165 C2.90416, -1.253 2.77009, -1.10837 2.67526, -0.966204 " /><path d="M2.71402, 1.03849 C2.7554, 1.10737 2.8346, 1.16744 2.96305, 1.22739  C3.00098, 1.24451 3.04239, 1.26172 3.0873, 1.27901  C3.1115, 1.28774 3.13569, 1.29648 3.15989, 1.30521  C3.18661, 1.31411 3.21332, 1.32301 3.24003, 1.3319  C3.26943, 1.34101 3.29883, 1.35012 3.32822, 1.35923  C3.36048, 1.36862 3.39274, 1.378 3.42499, 1.38738  C3.46031, 1.39708 3.49563, 1.40679 3.53094, 1.4165 " /><path id= "11" d=" M 4.12963 0.37955 L 3.07417 0.37955 " />
<path d="M2.66066, 0.936283 C2.7584, 0.758916 2.88841, 0.583878 3.07417, 0.37955 " /><path d="M2.85503, -1.03695 Q2.80132, -1.05448 2.75206, -1.07127 " /><path id= "14" d=" M 3.91049 -1.03695 L 2.85503 -1.03695 " />
<path d="M3.07417, 0.37955 C2.87075, -0.137843 2.81169, -0.519557 2.85503, -1.03695 " /><path d="M-3.86737 1.41421 A2 1.1547 90 0 0 -3.05088 2" />
<path d="M-3.05088 -2 A2 1.1547 90 0 0 -3.86737 -1.41421" />
<path d="M-3.86737 -1.41421 A2 1.1547 90 0 0 -3.86737 1.41421" />
<path id= "19" d=" M -3.86737 1.41421 L -4.03067 1.13137 " />
<path d="M-4.03067 -1.13137 A1.6 0.92376 90 0 0 -4.03067 1.13137" />
<path d="M2.21069 3.60764 A4.15811 4.15811 0 0 0 2.21069 -3.60764" /><path id= "2" d=" M -0.343973 -2 L -3.05088 -2 " />
<path id= "3" d=" M -0.343973 2 L -3.05088 2 " />
<path id= "4" d=" M -4.03067 -1.13137 L -3.86737 -1.41421 " />
</g>

</svg>
