<?xml version="1.0" encoding="UTF-8"?>
<svg xmlns="http://www.w3.org/2000/svg" version="1.1" width="13.450mm" height="15.280mm" viewBox="-6.722 -7.640 13.450 15.280">
<g fill="none" stroke="#000000" stroke-opacity="1" stroke-width="0.1834" stroke-linecap="butt" stroke-linejoin="miter" stroke-miterlimit="4">
<path d="M0.887055 2.38649 A3.375 1.94856 90 0 0 2.26489 3.375" />
<path d="M2.26489 3.375 A3.375 1.94856 90 0 0 2.26489 -3.375" />
<path d="M2.26489 -3.375 A3.375 1.94856 90 0 0 0.887055 2.38649" />
<path d="M-5.21306 4.65105 A7.19 4.15115 90 0 0 -4.98273 5.0841" />
<path d="M-6.13159, -1.2864 L-6.1498, -0.839205  L-6.15561, -0.402749  L-6.14903, 0.0248252  L-6.13005, 0.445339  L-6.09858, 0.860583  L-6.05449, 1.27233  L-5.99759, 1.68232  L-5.92764, 2.09232  L-5.84434, 2.50406  L-5.74733, 2.91931  L-5.6362, 3.33982  L-5.51048, 3.7674  L-5.36963, 4.20385  L-5.21306, 4.65105 " /><path d="M-5.95577 -2.42294 A7.19 4.15115 90 0 0 -6.13159 -1.2864" />
<path d="M-3.4463, -6.76945 L-3.7227, -6.44208  L-3.9805, -6.12257  L-4.22079, -5.80957  L-4.44459, -5.50173  L-4.65286, -5.19775  L-4.84649, -4.89633  L-5.0263, -4.59619  L-5.19306, -4.29606  L-5.34748, -3.99464  L-5.49021, -3.69066  L-5.62187, -3.38282  L-5.74301, -3.06981  L-5.85415, -2.75031  L-5.95577, -2.42294 " /><path d="M-2.79012 -7.07399 A7.19 4.15115 90 0 0 -3.4463 -6.76945" />
<path d="M-4.7327, 5.48305 L-4.56191, 5.60288  L-4.38325, 5.71982  L-4.19596, 5.83439  L-3.99925, 5.94707  L-3.79228, 6.05833  L-3.57417, 6.16866  L-3.34398, 6.27852  L-3.10074, 6.38838  L-2.84341, 6.4987  L-2.5709, 6.60997  L-2.28205, 6.72264  L-1.97561, 6.83721  L-1.6503, 6.95416  L-1.30472, 7.07399 " /><path d="M-4.98273 5.0841 A7.19 4.15115 90 0 0 -4.7327 5.48305" />
<path d="M2.54087 4.39072 A4.41667 2.54996 90 0 0 2.54087 -4.39072" />
<path id= "12" d=" M -4.7327 5.48305 L -2.69219 5.48305 " />
<path d="M-2.94221 5.0841 A7.19 4.15115 90 0 0 -2.69219 5.48305" />
<path d="M0.7358, 7.07399 L0.564188, 6.95416  L0.384842, 6.83721  L0.196999, 6.72264  L-0.000140442, 6.60997  L-0.207417, 6.4987  L-0.425714, 6.38838  L-0.655961, 6.27852  L-0.899138, 6.16866  L-1.15628, 6.05833  L-1.42849, 5.94707  L-1.71692, 5.83439  L-2.02279, 5.71982  L-2.34742, 5.60288  L-2.69219, 5.48305 " /><path id= "15" d=" M -1.30472 7.07399 L 0.7358 7.07399 " />
<path d="M0.7358 7.07399 A7.19 4.15115 90 0 0 1.39198 6.76945" />
<path d="M1.62507, 6.4935 Q1.51189, 6.62995 1.39198, 6.76945 " /><path d="M-0.749609, -7.07399 C-0.152427, -6.86978 0.354551, -6.67971 0.798712, -6.4935 " /><path id= "19" d=" M -2.79012 -7.07399 L -0.749609 -7.07399 " />
<path id= "20" d=" M -3.4463 -6.76945 L -1.40579 -6.76945 " />
<path d="M-0.749609 -7.07399 A7.19 4.15115 90 0 0 -1.40579 -6.76945" />
<path d="M-3.91525, -2.42294 L-3.63966, -2.75031  L-3.38255, -3.06981  L-3.14282, -3.38282  L-2.91945, -3.69066  L-2.71148, -3.99464  L-2.51804, -4.29606  L-2.33828, -4.59619  L-2.17146, -4.89633  L-2.01686, -5.19775  L-1.87383, -5.50173  L-1.74174, -5.80957  L-1.62004, -6.12257  L-1.50822, -6.44208  L-1.40579, -6.76945 " /><path id= "23" d=" M -5.95577 -2.42294 L -3.91525 -2.42294 " />
<path id= "24" d=" M -6.13159 -1.2864 L -4.09107 -1.2864 " />
<path d="M-3.91525 -2.42294 A7.19 4.15115 90 0 0 -4.09107 -1.2864" />
<path d="M-3.17254, 4.65105 L-3.15515, 4.20385  L-3.15003, 3.7674  L-3.15716, 3.33982  L-3.17657, 2.91931  L-3.20834, 2.50406  L-3.25261, 2.09232  L-3.30957, 1.68232  L-3.37947, 1.27233  L-3.46259, 0.860583  L-3.55929, 0.445339  L-3.66999, 0.0248252  L-3.79515, -0.402749  L-3.93531, -0.839205  L-4.09107, -1.2864 " /><path id= "27" d=" M -5.21306 4.65105 L -3.17254 4.65105 " />
<path d="M-3.17254 4.65105 A7.19 4.15115 90 0 0 -2.94221 5.0841" />
<path d="M1.01375 3.12305 A4.41667 2.54996 90 0 0 2.81684 4.41667" />
<path d="M2.81684 4.41667 A4.41667 2.54996 90 0 0 2.81684 -4.41667" />
<path d="M2.81684 -4.41667 A4.41667 2.54996 90 0 0 1.01375 3.12305" />
<path d="M-2.3326 4.5916 A6.4935 3.74902 90 0 0 0.318365 6.4935" />
<path d="M0.318365 -6.4935 A6.4935 3.74902 90 0 0 -2.3326 4.5916" />
<path id= "1" d=" M 0.318365 6.4935 L 1.96633 6.4935 " />
<path id= "2" d=" M 0.318365 -6.4935 L 1.96633 -6.4935 " />
<path d="M1.96633, 6.4935 C2.53159, 6.49452 3.09153, 6.32221 3.58573, 6.01217  C3.7625, 5.90153 3.93129, 5.77481 4.09208, 5.632  C4.50834, 5.26276 4.86804, 4.79275 5.16543, 4.249  C5.80379, 3.08615 6.15216, 1.56735 6.15556, 0.0336787  C6.16226, -1.5345 5.80782, -3.09273 5.15055, -4.27606  C4.74154, -5.01553 4.2151, -5.6179 3.58932, -6.00993  C3.09422, -6.32137 2.53296, -6.49453 1.96633, -6.4935 " /><g transform = "rotate(90, 2.81684, 0)">
<ellipse cx ="2.81684" cy ="0" rx ="5.45183"  ry ="3.14762"/>
</g>
<path d="M-0.684633 4.5916 A6.4935 3.74902 90 0 0 1.96633 6.4935" />
<path d="M1.96633 -6.4935 A6.4935 3.74902 90 0 0 -0.684633 4.5916" />
</g>

</svg>
