<?xml version="1.0" encoding="UTF-8"?>
<svg xmlns="http://www.w3.org/2000/svg" version="1.1" width="9.003mm" height="9.000mm" viewBox="-5.112 -4.500 9.003 9.000">
<g fill="none" stroke="#000000" stroke-opacity="1" stroke-width="0.1080" stroke-linecap="butt" stroke-linejoin="miter" stroke-miterlimit="4">
<path d="M-4.612 -1.13137 A1.6 0.92376 90 0 0 -4.612 1.13137" />
<path id= "2" d=" M -4.612 1.13137 L -4.4487 1.41421 " />
<path d="M-4.4487 1.41421 A2 1.1547 90 0 0 -3.63221 2" />
<path d="M-3.63221 -2 A2 1.1547 90 0 0 -4.4487 -1.41421" />
<path d="M-4.4487 -1.41421 A2 1.1547 90 0 0 -4.4487 1.41421" />
<path id= "6" d=" M -0.244327 1.45563 L 0.548254 2.82843 " />
<path d="M0.548254 2.82843 A4 2.3094 90 0 0 2.18125 4" />
<path d="M2.18125 -4 A4 2.3094 90 0 0 0.548254 -2.82843" />
<path d="M0.548254 -2.82843 A4 2.3094 90 0 0 0.548254 2.82843" />
<path d="M0.940173 2.82843 A4 2.3094 90 0 0 2.57317 4" />
<path d="M2.57317 4 A4 2.3094 90 0 0 2.57317 -4" />
<path d="M2.57317 -4 A4 2.3094 90 0 0 0.940173 2.82843" />
<path d="M3.17958 -1.05034 A1.48541 0.8576 -90 0 1 1.96675 1.05034" />
<path d="M1.96675 1.05034 A1.48541 0.8576 -90 0 1 1.96675 -1.05034" />
<path d="M1.96675 -1.05034 A1.48541 0.8576 -90 0 1 3.17958 -1.05034" />
<path d="M2.78799, 1.42765 C2.78895, 1.2369 2.83347, 1.07078 2.92801, 0.905097  C2.95627, 0.85778 2.98802, 0.810235 3.02326, 0.762463  C3.04259, 0.738325 3.06193, 0.714186 3.08126, 0.690048  C3.1234, 0.641221 3.16959, 0.591468 3.21983, 0.540789  C3.24696, 0.514868 3.2741, 0.488947 3.30124, 0.463026  C3.33129, 0.436197 3.36134, 0.409368 3.39139, 0.382539 " /><path d="M3.39139, 0.382539 C3.37116, 0.34589 3.35093, 0.309241 3.3307, 0.272591  C3.31305, 0.237183 3.2954, 0.201774 3.27775, 0.166365  C3.26257, 0.131978 3.2474, 0.0975908 3.23222, 0.0632039  C3.20533, -0.00428801 3.18203, -0.0708382 3.16232, -0.136447  C3.14456, -0.201705 3.13022, -0.266653 3.11928, -0.331288  C3.08538, -0.557612 3.10167, -0.784539 3.17053, -1.04512 " /><path d="M3.17053, -1.04512 C3.13481, -1.05494 3.09909, -1.06476 3.06337, -1.07458  C3.03076, -1.08406 2.99814, -1.09355 2.96553, -1.10304  C2.93581, -1.11225 2.9061, -1.12147 2.87639, -1.13068  C2.82098, -1.14877 2.76955, -1.1666 2.72211, -1.18418  C2.67677, -1.20166 2.63498, -1.21907 2.59672, -1.23639  C2.46717, -1.29703 2.38755, -1.35783 2.34627, -1.42765 " /><path d="M2.34627, -1.42765 C2.15627, -1.26286 2.02115, -1.1171 1.92557, -0.973812 " /><path d="M1.96463, 1.04666 C2.00634, 1.11609 2.08616, 1.17664 2.21563, 1.23706  C2.23537, 1.2457 2.25512, 1.25434 2.27486, 1.26299  C2.31752, 1.28032 2.3639, 1.29782 2.41402, 1.31549  C2.44094, 1.32446 2.46787, 1.33342 2.49479, 1.34239  C2.52442, 1.35157 2.55405, 1.36076 2.58367, 1.36994  C2.61619, 1.37939 2.6487, 1.38885 2.68121, 1.3983  C2.7168, 1.40809 2.7524, 1.41787 2.78799, 1.42765 " /><path id= "21" d=" M 3.39139 0.382539 L 2.17268 0.382539 " />
<path d="M1.84763, 0.791983 Q1.97331, 0.601271 2.17268, 0.382539 " /><path id= "23" d=" M 3.17053 -1.04512 L 1.97617 -1.04512 " />
<path d="M2.17268, 0.382539 C1.97242, -0.126322 1.91138, -0.50501 1.94864, -1.00743 " /><path id= "1" d=" M -4.612 -1.13137 L -4.4487 -1.41421 " />
<path id= "2" d=" M -3.63221 2 L 0.0699619 2 " />
<path id= "3" d=" M -3.63221 -2 L 0.0699619 -2 " />
<path id= "4" d=" M -0.244327 -1.45563 L 0.548254 -2.82843 " />
<path id= "5" d=" M 2.18125 4 L 2.57317 4 " />
<path id= "6" d=" M 2.18125 -4 L 2.57317 -4 " />
<path d="M-0.335883 1.41421 A2 1.1547 90 0 0 -0.0695014 1.75844" />
<path d="M-0.0695014 -1.75844 A2 1.1547 90 0 0 -0.335883 1.41421" />
<path d="M-0.244327 -1.45563 A2.05858 1.18852 90 0 0 -0.244327 1.45563" />
</g>

</svg>
