<?xml version="1.0" encoding="UTF-8"?>
<svg xmlns="http://www.w3.org/2000/svg" version="1.1" width="9.000mm" height="9.000mm" viewBox="-4.500 -4.500 9.000 9.000">
<g fill="none" stroke="#000000" stroke-opacity="1" stroke-width="0.1080" stroke-linecap="butt" stroke-linejoin="miter" stroke-miterlimit="4">
<path d="M-4, 0 C-4, 0.179757 -4, 0.357829 -4, 0.528446  C-4, 0.583702 -4, 0.638958 -4, 0.694214  C-4, 0.74656 -4, 0.798906 -4, 0.851251  C-4, 0.900029 -4, 0.948806 -4, 0.997584  C-4, 1.04218 -4, 1.08678 -4, 1.13137  C-4, 1.17122 -4, 1.21108 -4, 1.25093  C-4, 1.28554 -4, 1.32015 -4, 1.35476  C-4, 1.38369 -4, 1.41262 -4, 1.44155  C-4, 1.46444 -4, 1.48733 -4, 1.51021  C-4, 1.52677 -4, 1.54333 -4, 1.55988  C-4, 1.5699 -4, 1.57992 -4, 1.58994  C-4, 1.59329 -4, 1.59665 -4, 1.6 " /><path d="M-4, -1.6 Q-4, -1.59497 -4, -1.58994  Q-4, -1.57491 -4, -1.55988  Q-4, -1.53505 -4, -1.51021  Q-4, -1.47588 -4, -1.44155  Q-4, -1.39815 -4, -1.35476  Q-4, -1.30284 -4, -1.25093  Q-4, -1.19115 -4, -1.13137  Q-4, -1.06448 -4, -0.997584  Q-4, -0.924418 -4, -0.851251  Q-4, -0.772733 -4, -0.694214  Q-4, -0.53031 -4, -0.356033  Q-4, -0.179775 -4, -3.88578e-16 " /><path d="M-3.6, 0 C-3.6, 0.224696 -3.6, 0.447287 -3.6, 0.660558  C-3.6, 0.729628 -3.6, 0.798698 -3.6, 0.867767  C-3.6, 0.9332 -3.6, 0.998632 -3.6, 1.06406  C-3.6, 1.12504 -3.6, 1.18601 -3.6, 1.24698  C-3.6, 1.30272 -3.6, 1.35847 -3.6, 1.41421  C-3.6, 1.46403 -3.6, 1.51385 -3.6, 1.56366  C-3.6, 1.60692 -3.6, 1.65019 -3.6, 1.69345  C-3.6, 1.72961 -3.6, 1.76577 -3.6, 1.80194  C-3.6, 1.83055 -3.6, 1.85916 -3.6, 1.88777  C-3.6, 1.90846 -3.6, 1.92916 -3.6, 1.94986  C-3.6, 1.96238 -3.6, 1.9749 -3.6, 1.98742  C-3.6, 1.99162 -3.6, 1.99581 -3.6, 2 " /><path d="M-3.6, -2 Q-3.6, -1.99371 -3.6, -1.98742  Q-3.6, -1.96864 -3.6, -1.94986  Q-3.6, -1.91881 -3.6, -1.88777  Q-3.6, -1.84485 -3.6, -1.80194  Q-3.6, -1.74769 -3.6, -1.69345  Q-3.6, -1.62856 -3.6, -1.56366  Q-3.6, -1.48894 -3.6, -1.41421  Q-3.6, -1.3306 -3.6, -1.24698  Q-3.6, -1.15552 -3.6, -1.06406  Q-3.6, -0.965916 -3.6, -0.867767  Q-3.6, -0.764163 -3.6, -0.660558  Q-3.6, -0.5528 -3.6, -0.445042  Q-3.6, -0.224719 -3.6, -4.996e-16 " /><path d="M3.52, 0 L3.52, 0.447858  L3.52, 0.890084  L3.52, 1.32112  L3.52, 1.73553  L3.52, 2.12813  L3.52, 2.49396  L3.52, 2.82843  L3.52, 3.12733  L3.52, 3.3869  L3.52, 3.60388  L3.52, 3.77553  L3.52, 3.89971  L3.52, 3.97485  L3.52, 4 " /><path d="M3.52, -4 Q3.52, -3.98742 3.52, -3.97485  Q3.52, -3.93728 3.52, -3.89971  Q3.52, -3.83762 3.52, -3.77553  Q3.52, -3.6897 3.52, -3.60388  Q3.52, -3.49539 3.52, -3.3869  Q3.52, -3.25711 3.52, -3.12733  Q3.52, -2.97788 3.52, -2.82843  Q3.52, -2.66119 3.52, -2.49396  Q3.52, -2.31104 3.52, -2.12813  Q3.52, -1.93183 3.52, -1.73553  Q3.52, -1.52833 3.52, -1.32112  Q3.52, -1.1056 3.52, -0.890084  Q3.52, -0.449437 3.52, -9.99201e-16 " /><path d="M4, 0 L4, 0.447858  L4, 0.890084  L4, 1.32112  L4, 1.73553  L4, 2.12813  L4, 2.49396  L4, 2.82843  L4, 3.12733  L4, 3.3869  L4, 3.60388  L4, 3.77553  L4, 3.89971  L4, 3.97485  L4, 4 " /><path d="M4, -4 Q4, -3.98742 4, -3.97485  Q4, -3.93728 4, -3.89971  Q4, -3.83762 4, -3.77553  Q4, -3.6897 4, -3.60388  Q4, -3.49539 4, -3.3869  Q4, -3.25711 4, -3.12733  Q4, -2.97788 4, -2.82843  Q4, -2.66119 4, -2.49396  Q4, -2.31104 4, -2.12813  Q4, -1.93183 4, -1.73553  Q4, -1.52833 4, -1.32112  Q4, -1.1056 4, -0.890084  Q4, -0.449437 4, -9.99201e-16 " /><path id= "1" d=" M -4 1.6 L -3.6 2 " />
<path id= "2" d=" M -4 -1.6 L -3.6 -2 " />
<path id= "3" d=" M -3.6 2 L 1.43716 2 " />
<path id= "4" d=" M -3.6 -2 L 1.43716 -2 " />
<path d="M1.57858, 2.05858 Q1.5195, 2.00121 1.43716, 2 " /><path d="M1.57858, -2.05858 Q1.5195, -2.00121 1.43716, -2 " /><path id= "7" d=" M 1.57858 2.05858 L 3.52 4 " />
<path id= "8" d=" M 1.57858 -2.05858 L 3.52 -4 " />
<path id= "9" d=" M 3.52 4 L 4 4 " />
<path id= "10" d=" M 3.52 -4 L 4 -4 " />
<path d="M1.43716, 0 C1.43716, 0.224696 1.43716, 0.447287 1.43716, 0.660558  C1.43716, 0.729628 1.43716, 0.798698 1.43716, 0.867767  C1.43716, 0.9332 1.43716, 0.998632 1.43716, 1.06406  C1.43716, 1.12504 1.43716, 1.18601 1.43716, 1.24698  C1.43716, 1.30272 1.43716, 1.35847 1.43716, 1.41421  C1.43716, 1.46403 1.43716, 1.51385 1.43716, 1.56366  C1.43716, 1.60692 1.43716, 1.65019 1.43716, 1.69345  C1.43716, 1.72961 1.43716, 1.76577 1.43716, 1.80194  C1.43716, 1.83055 1.43716, 1.85916 1.43716, 1.88777  C1.43716, 1.90846 1.43716, 1.92916 1.43716, 1.94986  C1.43716, 1.96238 1.43716, 1.9749 1.43716, 1.98742  C1.43716, 1.99162 1.43716, 1.99581 1.43716, 2 " /><path d="M1.43716, -2 Q1.43716, -1.99371 1.43716, -1.98742  Q1.43716, -1.96864 1.43716, -1.94986  Q1.43716, -1.91881 1.43716, -1.88777  Q1.43716, -1.84485 1.43716, -1.80194  Q1.43716, -1.74769 1.43716, -1.69345  Q1.43716, -1.62856 1.43716, -1.56366  Q1.43716, -1.48894 1.43716, -1.41421  Q1.43716, -1.3306 1.43716, -1.24698  Q1.43716, -1.15552 1.43716, -1.06406  Q1.43716, -0.965916 1.43716, -0.867767  Q1.43716, -0.764163 1.43716, -0.660558  Q1.43716, -0.5528 1.43716, -0.445042  Q1.43716, -0.224719 1.43716, -4.996e-16 " /><path d="M1.57858, 0 Q1.57858, 0.2313 1.57858, 0.458077  Q1.57858, 0.568991 1.57858, 0.679905  Q1.57858, 0.786545 1.57858, 0.893184  Q1.57858, 0.994207 1.57858, 1.09523  Q1.57858, 1.18937 1.57858, 1.2835  Q1.57858, 1.36957 1.57858, 1.45563  Q1.57858, 1.53255 1.57858, 1.60946  Q1.57858, 1.67625 1.57858, 1.74305  Q1.57858, 1.79888 1.57858, 1.85472  Q1.57858, 1.89889 1.57858, 1.94306  Q1.57858, 1.97501 1.57858, 2.00697  Q1.57858, 2.0263 1.57858, 2.04563  Q1.57858, 2.05211 1.57858, 2.05858 " /><path d="M1.57858, -2.05858 Q1.57858, -2.05211 1.57858, -2.04563  Q1.57858, -2.0263 1.57858, -2.00697  Q1.57858, -1.97501 1.57858, -1.94306  Q1.57858, -1.89889 1.57858, -1.85472  Q1.57858, -1.79888 1.57858, -1.74305  Q1.57858, -1.67625 1.57858, -1.60946  Q1.57858, -1.53255 1.57858, -1.45563  Q1.57858, -1.36957 1.57858, -1.2835  Q1.57858, -1.18937 1.57858, -1.09523  Q1.57858, -0.994207 1.57858, -0.893184  Q1.57858, -0.786545 1.57858, -0.679905  Q1.57858, -0.568991 1.57858, -0.458077  Q1.57858, -0.2313 1.57858, -4.996e-16 " /></g>

</svg>
