<?xml version="1.0" encoding="UTF-8"?>
<svg xmlns="http://www.w3.org/2000/svg" version="1.1" width="11.685mm" height="8.002mm" viewBox="-5.705 -4.001 11.685 8.002">
<g fill="none" stroke="#000000" stroke-opacity="1" stroke-width="0.1402" stroke-linecap="butt" stroke-linejoin="miter" stroke-miterlimit="4">
<path d="M4.33762 -1.25549 A1.77553 1.0251 -90 0 1 2.88791 1.25549" />
<path d="M2.88791 1.25549 A1.77553 1.0251 -90 0 1 2.88791 -1.25549" />
<path d="M2.88791 -1.25549 A1.77553 1.0251 -90 0 1 4.33762 -1.25549" />
<path d="M3.86955, 1.70649 Q3.87122, 1.65839 3.87289, 1.61029  Q3.88101, 1.51658 3.89967, 1.42707  Q3.92133, 1.33848 3.9539, 1.25237  Q3.98962, 1.16671 4.03692, 1.08187  Q4.06338, 1.03938 4.08983, 0.996889  Q4.1203, 0.954135 4.15077, 0.911381  Q4.18544, 0.868102 4.2201, 0.824823  Q4.25918, 0.780752 4.29826, 0.736681  Q4.342, 0.691547 4.38573, 0.646412  Q4.43439, 0.599937 4.48304, 0.553461  Q4.53692, 0.505357 4.5908, 0.457253 " /><path d="M4.5908, 0.457253 Q4.55453, 0.391543 4.51826, 0.325832  Q4.48661, 0.262345 4.45497, 0.198858  Q4.42775, 0.137203 4.40054, 0.0755484  Q4.37759, 0.0153463 4.35464, -0.0448558  Q4.33582, -0.103976 4.31699, -0.163097  Q4.30217, -0.2215 4.28735, -0.279902  Q4.27645, -0.337948 4.26555, -0.395993  Q4.2493, -0.511883 4.24493, -0.62889  Q4.24388, -0.746524 4.25465, -0.867535  Q4.26278, -0.929189 4.27092, -0.990844  Q4.28292, -1.05433 4.29492, -1.11782  Q4.31087, -1.18353 4.32681, -1.24924 " /><path d="M4.32681, -1.24924 C4.28411, -1.26098 4.24141, -1.27272 4.19872, -1.28445  C4.15973, -1.29579 4.12075, -1.30714 4.08176, -1.31848  C4.04625, -1.32949 4.01073, -1.3405 3.97522, -1.35152  C3.94296, -1.36227 3.91069, -1.37303 3.87843, -1.38378  C3.84922, -1.39434 3.82001, -1.4049 3.79081, -1.41546  C3.76447, -1.42589 3.73813, -1.43633 3.7118, -1.44676  C3.68817, -1.45713 3.66455, -1.4675 3.64093, -1.47787  C3.48607, -1.55035 3.3909, -1.62304 3.34156, -1.70649 " /><path d="M3.34156, -1.70649 C3.11445, -1.50952 2.95294, -1.33528 2.8387, -1.16401 " /><path d="M2.88538, 1.25109 C2.93524, 1.33407 3.03065, 1.40645 3.1854, 1.47867  C3.209, 1.489 3.2326, 1.49933 3.2562, 1.50966  C3.2825, 1.52006 3.30879, 1.53045 3.33509, 1.54085  C3.36424, 1.55138 3.39339, 1.5619 3.42254, 1.57242  C3.45472, 1.58314 3.4869, 1.59386 3.51909, 1.60458  C3.5545, 1.61555 3.58992, 1.62653 3.62533, 1.6375  C3.66419, 1.6488 3.70305, 1.66011 3.74191, 1.67141  C3.78446, 1.6831 3.82701, 1.6948 3.86955, 1.70649 " /><path d="M-0.890209 2.47487 A3.5 2.02073 90 0 0 0.53866 3.5" />
<path d="M0.53866 -3.5 A3.5 2.02073 90 0 0 -0.890209 -2.47487" />
<path d="M-0.890209 -2.47487 A3.5 2.02073 90 0 0 -0.890209 2.47487" />
<path id= "12" d=" M 4.5908 0.457253 L 2.96502 0.457253 " />
<path d="M2.69264, 0.782669 Q2.80892, 0.628662 2.96502, 0.457253 " /><path id= "14" d=" M 4.32681 -1.24924 L 2.89917 -1.24924 " />
<path d="M2.96502, 0.457253 C2.78634, 0.00651307 2.70296, -0.358414 2.68664, -0.761164 " /><path id= "16" d=" M -0.890209 2.47487 L -0.986148 2.3087 " />
<path d="M-0.986148 -2.3087 A3.265 1.88505 90 0 0 -0.986148 2.3087" />
<path d="M-5.04209 1.41421 A2 1.1547 90 0 0 -4.2256 2" />
<path d="M-4.2256 -2 A2 1.1547 90 0 0 -5.04209 -1.41421" />
<path d="M-5.04209 -1.41421 A2 1.1547 90 0 0 -5.04209 1.41421" />
<path id= "21" d=" M -5.04209 1.41421 L -5.20539 1.13137 " />
<path d="M-5.20539 -1.13137 A1.6 0.92376 90 0 0 -5.20539 1.13137" />
<path d="M3.28617, 3.5 C3.69725, 3.50107 4.1024, 3.31963 4.43725, 2.99374  C4.66847, 2.77014 4.86913, 2.47945 5.03001, 2.14032  C5.31655, 1.5393 5.47437, 0.781508 5.47593, 0.0185326  C5.47941, -0.761717 5.31922, -1.53926 5.02454, -2.15182  C4.86147, -2.49255 4.65809, -2.78379 4.42389, -3.00656  C4.09176, -3.32445 3.69177, -3.50102 3.28617, -3.5 " /><path id= "2" d=" M 3.28617 -3.5 L 0.53866 -3.5 " />
<path id= "3" d=" M 3.28617 3.5 L 0.53866 3.5 " />
<path id= "4" d=" M -0.986148 -2.3087 L -0.890209 -2.47487 " />
<path id= "5" d=" M -1.14321 -2 L -4.2256 -2 " />
<path id= "6" d=" M -1.14321 2 L -4.2256 2 " />
<path id= "7" d=" M -5.20539 -1.13137 L -5.04209 -1.41421 " />
<g transform = "rotate(90, 3.61277, 0)">
<ellipse cx ="3.61277" cy ="0" rx ="3.1"  ry ="1.78979"/>
</g>
<path d="M1.8573 2.47487 A3.5 2.02073 90 0 0 3.28617 3.5" />
<path d="M3.28617 -3.5 A3.5 2.02073 90 0 0 1.8573 2.47487" />
</g>

</svg>
