<?xml version="1.0" encoding="UTF-8"?>
<svg xmlns="http://www.w3.org/2000/svg" version="1.1" width="14.455mm" height="15.660mm" viewBox="-7.228 -7.830 14.455 15.660">
<g fill="none" stroke="#000000" stroke-opacity="1" stroke-width="0.1879" stroke-linecap="butt" stroke-linejoin="miter" stroke-miterlimit="4">
<path d="M1.18924 2.35001 A3.32342 1.91878 90 0 0 2.54602 3.32342" />
<path d="M2.54602 3.32342 A3.32342 1.91878 90 0 0 2.54602 -3.32342" />
<path d="M2.54602 -3.32342 A3.32342 1.91878 90 0 0 1.18924 2.35001" />
<g transform = "rotate(90, 2.77609, 0)">
<ellipse cx ="2.77609" cy ="0" rx ="4.375"  ry ="2.52591"/>
</g>
<path d="M0.122474 4.59619 A6.5 3.75278 90 0 0 1.8048 6.27852" />
<path d="M-0.848816 1.68232 A6.5 3.75278 90 0 0 0.122474 4.59619" />
<path d="M0.122474 -4.59619 A6.5 3.75278 90 0 0 -0.848816 1.68232" />
<path d="M3.74738 -6.27852 A6.5 3.75278 90 0 0 0.122474 -4.59619" />
<path d="M6.40099 -1.68232 A6.5 3.75278 90 0 0 3.74738 -6.27852" />
<path d="M5.4297 4.59619 A6.5 3.75278 90 0 0 6.40099 -1.68232" />
<path d="M1.8048 6.27852 A6.5 3.75278 90 0 0 5.4297 4.59619" />
<path d="M1.8048, 6.27852 C1.13988, 5.97042 0.368614, 5.66251 -0.628123, 5.30723 " /><path d="M5.4297, 4.59619 C4.94266, 5.43793 4.34917, 6.27915 3.55756, 7.24981 " /><path d="M3.55756, 7.24981 C3.02322, 6.89452 2.46758, 6.58661 1.8048, 6.27852 " /><path d="M6.40099, -1.68232 C6.5778, -0.532496 6.64776, 0.616636 6.62168, 1.94258 " /><path d="M6.62168, 1.94258 C6.29248, 2.91324 5.91461, 3.75446 5.4297, 4.59619 " /><path d="M3.74738, -6.27852 C4.41016, -5.97042 4.9658, -5.66251 5.50014, -5.30723 " /><path d="M5.50014, -5.30723 C5.93646, -3.98128 6.22204, -2.83215 6.40099, -1.68232 " /><path d="M1.31446, -7.24981 C2.31119, -6.89452 3.08246, -6.58661 3.74738, -6.27852 " /><path d="M0.122474, -4.59619 C0.60738, -5.43793 0.98525, -6.27915 1.31446, -7.24981 " /><path d="M-1.74967, -1.94258 C-0.95806, -2.91324 -0.36457, -3.75446 0.122474, -4.59619 " /><path d="M-0.848816, 1.68232 C-1.02776, 0.532496 -1.31335, -0.616636 -1.74967, -1.94258 " /><path d="M-0.628123, 5.30723 C-0.602044, 3.98128 -0.672006, 2.83215 -0.848816, 1.68232 " /><path d="M-5.50014, 5.30723 C-4.9658, 5.66251 -4.41016, 5.97042 -3.74738, 6.27852 " /><path id= "25" d=" M -0.628123 5.30723 L -5.50014 5.30723 " />
<path id= "26" d=" M -1.31446 7.24981 L 3.55756 7.24981 " />
<path d="M-3.74738, 6.27852 C-3.08246, 6.58661 -2.31119, 6.89452 -1.31446, 7.24981 " /><path id= "28" d=" M -3.55756 -7.24981 L 1.31446 -7.24981 " />
<path d="M-3.55756, -7.24981 C-4.34917, -6.27915 -4.94266, -5.43793 -5.4297, -4.59619 " /><path id= "30" d=" M -6.62168 -1.94258 L -1.74967 -1.94258 " />
<path d="M-5.4297, -4.59619 C-5.91461, -3.75446 -6.29248, -2.91324 -6.62168, -1.94258 " /><path d="M-6.62168, -1.94258 C-6.64776, -0.616636 -6.5778, 0.532496 -6.40099, 1.68232 " /><path d="M-6.40099, 1.68232 C-6.22204, 2.83215 -5.93646, 3.98128 -5.50014, 5.30723 " /></g>

</svg>
