<?xml version="1.0" encoding="UTF-8"?>
<svg xmlns="http://www.w3.org/2000/svg" version="1.1" width="9.764mm" height="10.480mm" viewBox="-4.745 -5.278 9.764 10.480">
<g fill="none" stroke="#000000" stroke-opacity="1" stroke-width="0.1258" stroke-linecap="butt" stroke-linejoin="miter" stroke-miterlimit="4">
<path d="M0.490271 2.54558 A3.6 2.07846 90 0 0 3.2471 2.82663" />
<path d="M3.2471 -2.82663 A3.6 2.07846 90 0 0 0.490271 2.54558" />
<path d="M3.70474 -1.04214 A1.4738 0.8509 90 0 0 2.50138 -1.04214" />
<path d="M2.50138 -1.04214 A1.4738 0.8509 90 0 0 2.50138 1.04214" />
<path d="M2.50138 1.04214 A1.4738 0.8509 90 0 0 3.70474 -1.04214" />
<path d="M3.31621, 1.4165 C3.31716, 1.22724 3.36133, 1.06241 3.45513, 0.898026  C3.48317, 0.851079 3.51467, 0.803905 3.54964, 0.756506  C3.58663, 0.708852 3.62744, 0.660515 3.67207, 0.611493  C3.69627, 0.586517 3.72047, 0.561541 3.74467, 0.536564  C3.77159, 0.510846 3.79852, 0.485127 3.82544, 0.459409  C3.85526, 0.432789 3.88508, 0.40617 3.91489, 0.37955 " /><path d="M3.91489, 0.37955 C3.89482, 0.343187 3.87475, 0.306825 3.85467, 0.270462  C3.83716, 0.23533 3.81965, 0.200197 3.80214, 0.165065  C3.7707, 0.0963775 3.74294, 0.0289448 3.71886, -0.0372332  C3.70845, -0.0699491 3.69803, -0.102665 3.68761, -0.135381  C3.66999, -0.20013 3.65576, -0.264569 3.64491, -0.3287  C3.61127, -0.553256 3.62744, -0.77841 3.69576, -1.03695 " /><path d="M3.69576, -1.03695 C3.66032, -1.04669 3.62488, -1.05644 3.58943, -1.06618  C3.55707, -1.07559 3.52471, -1.08501 3.49235, -1.09442  C3.46287, -1.10356 3.4334, -1.11271 3.40392, -1.12185  C3.34894, -1.13979 3.29791, -1.15748 3.25084, -1.17493  C3.20586, -1.19228 3.16439, -1.20954 3.12643, -1.22673  C2.99789, -1.2869 2.91889, -1.34723 2.87794, -1.4165 " /><path d="M2.87794, -1.4165 C2.68942, -1.253 2.55535, -1.10837 2.46053, -0.966204 " /><path d="M2.49928, 1.03849 C2.54066, 1.10737 2.61986, 1.16744 2.74832, 1.22739  C2.76791, 1.23597 2.7875, 1.24454 2.80709, 1.25312  C2.84941, 1.27032 2.89543, 1.28768 2.94515, 1.30521  C2.97187, 1.31411 2.99858, 1.32301 3.0253, 1.3319  C3.05469, 1.34101 3.08409, 1.35012 3.11349, 1.35923  C3.14574, 1.36862 3.178, 1.378 3.21026, 1.38738  C3.24557, 1.39708 3.28089, 1.40679 3.31621, 1.4165 " /><path id= "11" d=" M 3.91489 0.37955 L 2.85943 0.37955 " />
<path d="M2.44593, 0.936283 C2.54367, 0.758916 2.67367, 0.583878 2.85943, 0.37955 " /><path d="M2.6403, -1.03695 Q2.58658, -1.05448 2.53732, -1.07127 " /><path id= "14" d=" M 3.69576 -1.03695 L 2.6403 -1.03695 " />
<path d="M2.85943, 0.37955 C2.65601, -0.137843 2.59696, -0.519557 2.6403, -1.03695 " /><path d="M-4.08211 1.41421 A2 1.1547 90 0 0 -3.26561 2" />
<path d="M-3.26561 -2 A2 1.1547 90 0 0 -4.08211 -1.41421" />
<path d="M-4.08211 -1.41421 A2 1.1547 90 0 0 -4.08211 1.41421" />
<path id= "19" d=" M -4.08211 1.41421 L -4.24541 1.13137 " />
<path d="M-4.24541 -1.13137 A1.6 0.92376 90 0 0 -4.24541 1.13137" />
<path d="M3.2471 2.82663 A4.78543 4.78543 0 0 0 3.2471 -2.82663" /><path d="M-0.468512, 3.24056 C-0.146467, 3.79923 0.264675, 4.22748 0.729219, 4.47029  C1.02023, 4.623 1.3319, 4.70203 1.64409, 4.69998  C1.95662, 4.69838 2.26807, 4.61554 2.55843, 4.45919  C3.07303, 4.18336 3.52023, 3.67908 3.85304, 3.02319  C4.28175, 2.18439 4.51875, 1.09088 4.51597, -0.00849871  C4.5165, -1.13863 4.26329, -2.26042 3.81016, -3.10555  C3.48019, -3.72554 3.0454, -4.20131 2.54854, -4.46447  C1.9677, -4.77757 1.30021, -4.77778 0.719269, -4.46504  C0.208426, -4.19488 -0.236739, -3.69993 -0.570119, -3.05474  C-1.00353, -2.22195 -1.24627, -1.13173 -1.24917, -0.0320718  C-1.25632, 1.17305 -0.973686, 2.37133 -0.468512, 3.24056 " /><path id= "3" d=" M -0.981159 -2 L -3.26561 -2 " />
<path id= "4" d=" M -0.981161 2 L -3.26561 2 " />
<path id= "5" d=" M -4.24541 -1.13137 L -4.08211 -1.41421 " />
<g transform = "rotate(90, 1.95996, 0)">
<ellipse cx ="1.95996" cy ="0" rx ="4.3"  ry ="2.48261"/>
</g>
</g>

</svg>
