<?xml version="1.0" encoding="UTF-8"?>
<svg xmlns="http://www.w3.org/2000/svg" version="1.1" width="10.837mm" height="7.550mm" viewBox="-5.751 -3.775 10.837 7.550">
<g fill="none" stroke="#000000" stroke-opacity="1" stroke-width="0.1300" stroke-linecap="butt" stroke-linejoin="miter" stroke-miterlimit="4">
<path d="M3.29899 1.56973 A2.075 1.198 90 0 0 4.08248 2.075" />
<path d="M4.08248 2.075 A2.075 1.198 90 0 0 4.08248 -2.075" />
<path d="M4.08248 -2.075 A2.075 1.198 90 0 0 3.1762 1.35704" />
<path id= "4" d=" M 3.1762 1.35704 L 2.91414 1.74944 " />
<path d="M3.07244 2.02363 A2.675 1.54441 90 0 0 4.58651 2.52853" />
<path d="M4.58651 2.52853 A2.675 1.54441 90 0 0 4.58651 -2.52853" />
<path d="M4.58651 -2.52853 A2.675 1.54441 90 0 0 2.91414 1.74944" />
<path id= "8" d=" M 3.29899 1.56973 L 3.07244 2.02363 " />
<path id= "9" d=" M 3.07244 2.02363 L 1.78445 2.47753 " />
<path d="M1.78445 2.47753 A3.275 1.89082 90 0 0 3.02104 3.275" />
<path d="M3.02104 3.275 A3.275 1.89082 90 0 0 3.63812 3.09568" />
<path d="M3.63812 -3.09568 A3.275 1.89082 90 0 0 3.02104 -3.275" />
<path d="M3.02104 -3.275 A3.275 1.89082 90 0 0 1.59063 2.14184" />
<path id= "14" d=" M 2.91414 1.74944 L 1.59063 2.14184 " />
<path id= "15" d=" M 1.78445 2.47753 L -4.25763 2.47753 " />
<path d="M-4.25763 2.47753 A3.275 1.89082 90 0 0 -3.63812 3.09568" />
<path d="M-3.63812 3.09568 A3.275 1.89082 90 0 0 -3.02104 3.275" />
<path d="M-3.02104 -3.275 A3.275 1.89082 90 0 0 -3.63812 -3.09568" />
<path d="M-3.63812 -3.09568 A3.275 1.89082 90 0 0 -4.45144 2.14184" />
<path id= "20" d=" M 1.59063 2.14184 L -4.45144 2.14184 " />
<path id= "21" d=" M -4.25763 2.47753 L -5.09252 2.02363 " />
<path d="M-5.09252 2.02363 A2.675 1.54441 90 0 0 -4.58651 2.52853" />
<path d="M-4.58651 -2.52853 A2.675 1.54441 90 0 0 -5.25083 1.74944" />
<path id= "24" d=" M -4.45144 2.14184 L -5.25083 1.74944 " />
<path id= "25" d=" M -5.09252 2.02363 L -5.01375 1.86581 " />
<path id= "26" d=" M 3.03415 1.56973 L 3.29899 1.56973 " />
<path id= "1" d=" M 4.58651 -2.52853 L 3.63812 -3.09568 " />
<path id= "2" d=" M 4.58651 2.52853 L 3.63812 3.09568 " />
<path id= "3" d=" M 3.02104 -3.275 L -3.02104 -3.275 " />
<path id= "4" d=" M 3.02104 3.275 L -3.02104 3.275 " />
<path id= "5" d=" M -4.58651 2.52853 L -3.63812 3.09568 " />
<path id= "6" d=" M -4.58651 -2.52853 L -3.63812 -3.09568 " />
</g>

</svg>
