<?xml version="1.0" encoding="UTF-8"?>
<svg xmlns="http://www.w3.org/2000/svg" version="1.1" width="23.000mm" height="25.011mm" viewBox="-11.500 -12.506 23.000 25.011">
<g fill="none" stroke="#000000" stroke-opacity="1" stroke-width="0.7" stroke-linecap="butt" stroke-linejoin="miter" stroke-miterlimit="4">
<circle cx ="8.88178e-16" cy ="-7.14984e-14" r ="3.32342" /><circle cx ="8.88178e-16" cy ="-7.14984e-14" r ="4.375" /><path d="M5.59054e-13, -7.50555 C1.18881, -6.81919 2.21909, -6.22436 3.25, -5.62917 " /><path d="M3.25, -5.62917 C4.28091, -5.03397 5.31119, -4.43914 6.5, -3.75278 " /><path d="M6.5, -3.75278 C6.5, -2.38006 6.5, -1.19039 6.5, 6.73239e-13 " /><path d="M6.5, 6.73239e-13 C6.5, 1.19039 6.5, 2.38006 6.5, 3.75278 " /><path d="M6.5, 3.75278 C5.31119, 4.43914 4.28091, 5.03397 3.25, 5.62917 " /><path d="M3.25, 5.62917 C2.21909, 6.22436 1.18881, 6.81919 8.0691e-13, 7.50555 " /><path d="M-3.10196e-13, 7.50555 C-1.18881, 6.81919 -2.21909, 6.22436 -3.25, 5.62917 " /><path d="M-3.25, 5.62917 C-4.28091, 5.03397 -5.31119, 4.43914 -6.5, 3.75278 " /><path d="M-6.5, 3.75278 C-6.5, 2.38006 -6.5, 1.19039 -6.5, -8.06861e-09 " /><path d="M-6.5, -8.06861e-09 C-6.5, -1.19039 -6.5, -2.38006 -6.5, -3.75278 " /><path d="M-6.5, -3.75278 C-5.31119, -4.43914 -4.28091, -5.03397 -3.25, -5.62917 " /><path d="M-3.25, -5.62917 C-2.21909, -6.22436 -1.18881, -6.81919 -5.57206e-13, -7.50555 " /><path d="M8.88178e-16 -6.5 A6.5 6.5 0 0 1 3.25 -5.62917" /><path d="M3.25 -5.62917 A6.5 6.5 0 0 1 6.5 6.72841e-13" /><path d="M6.5 6.72841e-13 A6.5 6.5 0 0 1 3.25 5.62917" /><path d="M3.25 5.62917 A6.5 6.5 0 0 1 -3.25 5.62917" /><path d="M-3.25 5.62917 A6.5 6.5 0 0 1 -6.5 -8.06862e-09" /><path d="M-6.5 -8.06862e-09 A6.5 6.5 0 0 1 -3.25 -5.62917" /><path d="M-3.25 -5.62917 A6.5 6.5 0 0 1 -7.03862e-16 -6.5" /></g>

</svg>
