<?xml version="1.0" encoding="UTF-8"?>
<svg xmlns="http://www.w3.org/2000/svg" version="1.1" width="8.000mm" height="8.000mm" viewBox="-4.000 -4.000 8.000 8.000">
<g fill="none" stroke="#000000" stroke-opacity="1" stroke-width="0.0960" stroke-linecap="butt" stroke-linejoin="miter" stroke-miterlimit="4">
<circle cx ="0" cy ="0" r ="1.77553" /><circle cx ="0" cy ="0" r ="3.5" /><path d="M1.53, 0.883346 C1.53, 0.238041 1.53, -0.238041 1.53, -0.883346 " /><path d="M1.53, -0.883346 C0.97115, -1.206 0.55885, -1.44404 2.06946e-13, -1.76669 " /><path d="M-2.07834e-13, -1.76669 C-0.55885, -1.44404 -0.97115, -1.206 -1.53, -0.883346 " /><path d="M-1.53, -0.883346 C-1.53, -0.238041 -1.53, 0.238041 -1.53, 0.883346 " /><path d="M-1.53, 0.883346 C-0.97115, 1.206 -0.55885, 1.44404 -2.06946e-13, 1.76669 " /><path d="M2.06946e-13, 1.76669 C0.55885, 1.44404 0.97115, 1.206 1.53, 0.883346 " /><circle cx ="0" cy ="0" r ="0.2448" /><circle cx ="0" cy ="0" r ="3.1" /></g>

</svg>
