<?xml version="1.0" encoding="UTF-8"?>
<svg xmlns="http://www.w3.org/2000/svg" version="1.1" width="27.000mm" height="17.001mm" viewBox="-10.000 -8.500 27.000 17.001">
<g fill="none" stroke="#000000" stroke-opacity="1" stroke-width="0.7" stroke-linecap="butt" stroke-linejoin="miter" stroke-miterlimit="4">
<path d="M5, 0 Q5, 0.348314 5, 0.689815  Q5, 0.85684 5, 1.02387  Q5, 1.18445 5, 1.34504  Q5, 1.49717 5, 1.6493  Q5, 1.79106 5, 1.93282  Q5, 2.06242 5, 2.19203  Q5, 2.30785 5, 2.42368  Q5, 2.52426 5, 2.62485  Q5, 2.70892 5, 2.793  Q5, 2.85952 5, 2.92604  Q5, 2.97416 5, 3.02228  Q5, 3.05139 5, 3.08051  Q5, 3.09025 5, 3.1 " /><path d="M5, 3.1 L5, 3.0927  L5, 3.07084  L5, 3.03451  L5, 2.98389  L5, 2.91922  L5, 2.84081  L5, 2.74901  L5, 2.64427  L5, 2.52708  L5, 2.39798  L5, 2.25759  L5, 2.10657  L5, 1.94563  L5, 1.77553 " /><path d="M5, -1.77553 L5, -1.94563  L5, -2.10657  L5, -2.25759  L5, -2.39798  L5, -2.52708  L5, -2.64427  L5, -2.74901  L5, -2.84081  L5, -2.91922  L5, -2.98389  L5, -3.03451  L5, -3.07084  L5, -3.0927  L5, -3.1 " /><path d="M5, -3.1 Q5, -3.09025 5, -3.08051  Q5, -3.05139 5, -3.02228  Q5, -2.97416 5, -2.92604  Q5, -2.85952 5, -2.793  Q5, -2.70892 5, -2.62485  Q5, -2.52426 5, -2.42368  Q5, -2.30785 5, -2.19203  Q5, -2.06242 5, -1.93282  Q5, -1.79106 5, -1.6493  Q5, -1.49717 5, -1.34504  Q5, -1.18445 5, -1.02387  Q5, -0.85684 5, -0.689815  Q5, -0.348314 5, -7.77156e-16 " /><path d="M5, 1.77553 L5, 1.73101  L5, 1.59969  L5, 1.38816  L5, 1.10702  L5, 0.770372  L5, 0.395092  L5, 2.22045e-16  L5, -0.395092  L5, -0.770372  L5, -1.10702  L5, -1.38816  L5, -1.59969  L5, -1.73101  L5, -1.77553 " /><path d="M1.235, 0 L1.235, 0.391876  L1.235, 0.778823  L1.235, 1.15598  L1.235, 1.51859  L1.235, 1.86211  L1.235, 2.18221  L1.235, 2.47487  L1.235, 2.73641  L1.235, 2.96353  L1.235, 3.15339  L1.235, 3.30359  L1.235, 3.41225  L1.235, 3.47799  L1.235, 3.5 " /><path d="M1.235, -3.5 Q1.235, -3.489 1.235, -3.47799  Q1.235, -3.44512 1.235, -3.41225  Q1.235, -3.35792 1.235, -3.30359  Q1.235, -3.22849 1.235, -3.15339  Q1.235, -3.05846 1.235, -2.96353  Q1.235, -2.84997 1.235, -2.73641  Q1.235, -2.60564 1.235, -2.47487  Q1.235, -2.32854 1.235, -2.18221  Q1.235, -2.02216 1.235, -1.86211  Q1.235, -1.69035 1.235, -1.51859  Q1.235, -1.33728 1.235, -1.15598  Q1.235, -0.9674 1.235, -0.778823  Q1.235, -0.393258 1.235, -8.32667e-16 " /><path d="M1, 0 L1, 0.365564  L1, 0.726531  L1, 1.07836  L1, 1.41663  L1, 1.73708  L1, 2.03569  L1, 2.3087  L1, 2.55268  L1, 2.76455  L1, 2.94166  L1, 3.08178  L1, 3.18314  L1, 3.24447  L1, 3.265 " /><path d="M1, -3.265 Q1, -3.25474 1, -3.24447  Q1, -3.2138 1, -3.18314  Q1, -3.13246 1, -3.08178  Q1, -3.01172 1, -2.94166  Q1, -2.85311 1, -2.76455  Q1, -2.65862 1, -2.55268  Q1, -2.43069 1, -2.3087  Q1, -2.1722 1, -2.03569  Q1, -1.88639 1, -1.73708  Q1, -1.57686 1, -1.41663  Q1, -1.2475 1, -1.07836  Q1, -0.902446 1, -0.726531  Q1, -0.366853 1, -7.77156e-16 " /><path d="M-4.6, 0 C-4.6, 0.224696 -4.6, 0.447287 -4.6, 0.660558  C-4.6, 0.729628 -4.6, 0.798698 -4.6, 0.867767  C-4.6, 0.9332 -4.6, 0.998632 -4.6, 1.06406  C-4.6, 1.12504 -4.6, 1.18601 -4.6, 1.24698  C-4.6, 1.30272 -4.6, 1.35847 -4.6, 1.41421  C-4.6, 1.46403 -4.6, 1.51385 -4.6, 1.56366  C-4.6, 1.60692 -4.6, 1.65019 -4.6, 1.69345  C-4.6, 1.72961 -4.6, 1.76577 -4.6, 1.80194  C-4.6, 1.83055 -4.6, 1.85916 -4.6, 1.88777  C-4.6, 1.90846 -4.6, 1.92916 -4.6, 1.94986  C-4.6, 1.96238 -4.6, 1.9749 -4.6, 1.98742  C-4.6, 1.99162 -4.6, 1.99581 -4.6, 2 " /><path d="M-4.6, -2 Q-4.6, -1.99371 -4.6, -1.98742  Q-4.6, -1.96864 -4.6, -1.94986  Q-4.6, -1.91881 -4.6, -1.88777  Q-4.6, -1.84485 -4.6, -1.80194  Q-4.6, -1.74769 -4.6, -1.69345  Q-4.6, -1.62856 -4.6, -1.56366  Q-4.6, -1.48894 -4.6, -1.41421  Q-4.6, -1.3306 -4.6, -1.24698  Q-4.6, -1.15552 -4.6, -1.06406  Q-4.6, -0.965916 -4.6, -0.867767  Q-4.6, -0.764163 -4.6, -0.660558  Q-4.6, -0.5528 -4.6, -0.445042  Q-4.6, -0.224719 -4.6, -4.996e-16 " /><path d="M-5, 0 C-5, 0.179757 -5, 0.357829 -5, 0.528446  C-5, 0.583702 -5, 0.638958 -5, 0.694214  C-5, 0.74656 -5, 0.798906 -5, 0.851251  C-5, 0.900029 -5, 0.948806 -5, 0.997584  C-5, 1.04218 -5, 1.08678 -5, 1.13137  C-5, 1.17122 -5, 1.21108 -5, 1.25093  C-5, 1.28554 -5, 1.32015 -5, 1.35476  C-5, 1.38369 -5, 1.41262 -5, 1.44155  C-5, 1.46444 -5, 1.48733 -5, 1.51021  C-5, 1.52677 -5, 1.54333 -5, 1.55988  C-5, 1.5699 -5, 1.57992 -5, 1.58994  C-5, 1.59329 -5, 1.59665 -5, 1.6 " /><path d="M-5, -1.6 Q-5, -1.59497 -5, -1.58994  Q-5, -1.57491 -5, -1.55988  Q-5, -1.53505 -5, -1.51021  Q-5, -1.47588 -5, -1.44155  Q-5, -1.39815 -5, -1.35476  Q-5, -1.30284 -5, -1.25093  Q-5, -1.19115 -5, -1.13137  Q-5, -1.06448 -5, -0.997584  Q-5, -0.924418 -5, -0.851251  Q-5, -0.772733 -5, -0.694214  Q-5, -0.53031 -5, -0.356033  Q-5, -0.179775 -5, -3.88578e-16 " /><path d="M4.6, 3.5 C4.70381, 3.50041 4.80692, 3.45817 4.88061, 3.38506  C4.95641, 3.31106 5.00044, 3.20592 5, 3.1 " /><path d="M4.6, -3.5 C4.70381, -3.50041 4.80692, -3.45817 4.88061, -3.38506  C4.95641, -3.31106 5.00044, -3.20592 5, -3.1 " /><path id= "3" d=" M 4.6 -3.5 L 1.235 -3.5 " />
<path id= "4" d=" M 4.6 3.5 L 1.235 3.5 " />
<path id= "5" d=" M 1 3.265 L 1.235 3.5 " />
<path id= "6" d=" M 1 -3.265 L 1.235 -3.5 " />
<path d="M0.8, 2 C0.905015, 1.99687 1.00238, 2.09128 1, 2.2 " /><path d="M0.8, -2 C0.905015, -1.99687 1.00238, -2.09128 1, -2.2 " /><path id= "9" d=" M 0.8 -2 L -4.6 -2 " />
<path id= "10" d=" M 0.8 2 L -4.6 2 " />
<path id= "11" d=" M -5 1.6 L -4.6 2 " />
<path id= "12" d=" M -5 -1.6 L -4.6 -2 " />
<path d="M4.6, 0 L4.6, 0.391876  L4.6, 0.778823  L4.6, 1.15598  L4.6, 1.51859  L4.6, 1.86211  L4.6, 2.18221  L4.6, 2.47487  L4.6, 2.73641  L4.6, 2.96353  L4.6, 3.15339  L4.6, 3.30359  L4.6, 3.41225  L4.6, 3.47799  L4.6, 3.5 " /><path d="M4.6, -3.5 Q4.6, -3.489 4.6, -3.47799  Q4.6, -3.44512 4.6, -3.41225  Q4.6, -3.35792 4.6, -3.30359  Q4.6, -3.22849 4.6, -3.15339  Q4.6, -3.05846 4.6, -2.96353  Q4.6, -2.84997 4.6, -2.73641  Q4.6, -2.60564 4.6, -2.47487  Q4.6, -2.32854 4.6, -2.18221  Q4.6, -2.02216 4.6, -1.86211  Q4.6, -1.69035 4.6, -1.51859  Q4.6, -1.33728 4.6, -1.15598  Q4.6, -0.9674 4.6, -0.778823  Q4.6, -0.393258 4.6, -8.32667e-16 " /><path d="M0.8, 0 C0.8, 0.224696 0.8, 0.447287 0.8, 0.660558  C0.8, 0.729628 0.8, 0.798698 0.8, 0.867767  C0.8, 0.9332 0.8, 0.998632 0.8, 1.06406  C0.8, 1.12504 0.8, 1.18601 0.8, 1.24698  C0.8, 1.30272 0.8, 1.35847 0.8, 1.41421  C0.8, 1.46403 0.8, 1.51385 0.8, 1.56366  C0.8, 1.60692 0.8, 1.65019 0.8, 1.69345  C0.8, 1.72961 0.8, 1.76577 0.8, 1.80194  C0.8, 1.83055 0.8, 1.85916 0.8, 1.88777  C0.8, 1.90846 0.8, 1.92916 0.8, 1.94986  C0.8, 1.96238 0.8, 1.9749 0.8, 1.98742  C0.8, 1.99162 0.8, 1.99581 0.8, 2 " /><path d="M0.8, -2 Q0.8, -1.99371 0.8, -1.98742  Q0.8, -1.96864 0.8, -1.94986  Q0.8, -1.91881 0.8, -1.88777  Q0.8, -1.84485 0.8, -1.80194  Q0.8, -1.74769 0.8, -1.69345  Q0.8, -1.62856 0.8, -1.56366  Q0.8, -1.48894 0.8, -1.41421  Q0.8, -1.3306 0.8, -1.24698  Q0.8, -1.15552 0.8, -1.06406  Q0.8, -0.965916 0.8, -0.867767  Q0.8, -0.764163 0.8, -0.660558  Q0.8, -0.5528 0.8, -0.445042  Q0.8, -0.224719 0.8, -4.996e-16 " /></g>

</svg>
