<?xml version="1.0" encoding="UTF-8"?>
<svg xmlns="http://www.w3.org/2000/svg" version="1.1" width="12.093mm" height="13.267mm" viewBox="-6.046 -6.633 12.093 13.267">
<g fill="none" stroke="#000000" stroke-opacity="1" stroke-width="0.1592" stroke-linecap="butt" stroke-linejoin="miter" stroke-miterlimit="4">
<path d="M1.03551 1.75899 A2.48759 1.43621 90 0 0 2.05107 2.48759" />
<path d="M2.05107 2.48759 A2.48759 1.43621 90 0 0 2.05107 -2.48759" />
<path d="M2.05107 -2.48759 A2.48759 1.43621 90 0 0 1.03551 1.75899" />
<g transform = "rotate(90, 2.27092, 0)">
<ellipse cx ="2.27092" cy ="0" rx ="3.4925"  ry ="2.0164"/>
</g>
<path d="M0.0259238 3.88845 A5.4991 3.17491 90 0 0 1.4492 5.31172" />
<path d="M-0.795803 1.42327 A5.4991 3.17491 90 0 0 0.0259238 3.88845" />
<path d="M0.0259238 -3.88845 A5.4991 3.17491 90 0 0 -0.795803 1.42327" />
<path d="M3.09265 -5.31172 A5.4991 3.17491 90 0 0 0.0259238 -3.88845" />
<path d="M5.33765 -1.42327 A5.4991 3.17491 90 0 0 3.09265 -5.31172" />
<path d="M4.51592 3.88845 A5.4991 3.17491 90 0 0 5.33765 -1.42327" />
<path d="M1.4492 5.31172 A5.4991 3.17491 90 0 0 4.51592 3.88845" />
<path d="M1.4492, 5.31172 C0.88666, 5.05107 0.234161, 4.79057 -0.609093, 4.49 " /><path d="M4.51592, 3.88845 C4.10387, 4.60057 3.60177, 5.31226 2.93206, 6.13345 " /><path d="M2.93206, 6.13345 C2.48, 5.83287 2.00992, 5.57238 1.4492, 5.31172 " /><path d="M5.33765, -1.42327 C5.48723, -0.450499 5.54642, 0.521684 5.52436, 1.64345 " /><path d="M5.52436, 1.64345 C5.24584, 2.46464 4.92616, 3.17633 4.51592, 3.88845 " /><path d="M3.09265, -5.31172 C3.65337, -5.05107 4.12346, -4.79057 4.57551, -4.49 " /><path d="M4.57551, -4.49 C4.94465, -3.36823 5.18625, -2.39604 5.33765, -1.42327 " /><path d="M1.03436, -6.13345 C1.87761, -5.83287 2.53011, -5.57238 3.09265, -5.31172 " /><path d="M0.0259238, -3.88845 C0.436161, -4.60057 0.755845, -5.31226 1.03436, -6.13345 " /><path d="M-1.55794, -1.64345 C-0.888225, -2.46464 -0.386123, -3.17633 0.0259238, -3.88845 " /><path d="M-0.795803, 1.42327 C-0.947196, 0.450499 -1.1888, -0.521684 -1.55794, -1.64345 " /><path d="M-0.609093, 4.49 C-0.58703, 3.36823 -0.646219, 2.39604 -0.795803, 1.42327 " /><path d="M-4.57551, 4.49 C-4.12346, 4.79057 -3.65337, 5.05107 -3.09265, 5.31172 " /><path id= "25" d=" M -0.609093 4.49 L -4.57551 4.49 " />
<path id= "26" d=" M -1.03436 6.13345 L 2.93206 6.13345 " />
<path d="M-3.09265, 5.31172 C-2.53011, 5.57238 -1.87761, 5.83287 -1.03436, 6.13345 " /><path id= "28" d=" M -2.93206 -6.13345 L 1.03436 -6.13345 " />
<path d="M-2.93206, -6.13345 C-3.60177, -5.31226 -4.10387, -4.60057 -4.51592, -3.88845 " /><path id= "30" d=" M -5.52436 -1.64345 L -1.55794 -1.64345 " />
<path d="M-4.51592, -3.88845 C-4.92616, -3.17633 -5.24584, -2.46464 -5.52436, -1.64345 " /><path d="M-5.52436, -1.64345 C-5.54642, -0.521684 -5.48723, 0.450499 -5.33765, 1.42327 " /><path d="M-5.33765, 1.42327 C-5.18625, 2.39604 -4.94465, 3.36823 -4.57551, 4.49 " /></g>

</svg>
