<?xml version="1.0" encoding="UTF-8"?>
<svg xmlns="http://www.w3.org/2000/svg" version="1.1" width="14.148mm" height="15.504mm" viewBox="-7.074 -7.740 14.148 15.504">
<g fill="none" stroke="#000000" stroke-opacity="1" stroke-width="0.1861" stroke-linecap="butt" stroke-linejoin="miter" stroke-miterlimit="4">
<circle cx ="4.44089e-16" cy ="-3.10862e-15" r ="3.375" /><path d="M4.44089e-16 7.19 A7.19 7.19 0 0 0 0.588314 7.16589" /><path d="M5.91169, 4.09244 C5.77804, 4.1696 5.64439, 4.24676 5.51074, 4.32393  C5.3803, 4.39923 5.24986, 4.47454 5.11942, 4.54985  C4.99164, 4.62363 4.86386, 4.6974 4.73607, 4.77118  C4.23063, 5.063 3.73958, 5.34651 3.25, 5.62917  C2.88351, 5.84076 2.51383, 6.05419 2.14095, 6.26948  C1.89078, 6.41391 1.63733, 6.56024 1.38058, 6.70848  C1.25014, 6.78379 1.1197, 6.8591 0.989259, 6.9344  C0.855611, 7.01157 0.721962, 7.08873 0.588314, 7.16589 " /><path d="M5.91169 4.09244 A7.19 7.19 0 0 0 6.5 3.07345" /><path d="M6.5, -3.07345 C6.5, -2.91913 6.5, -2.7648 6.5, -2.61048  C6.5, -2.45986 6.5, -2.30924 6.5, -2.15863  C6.5, -1.86215 6.5, -1.56949 6.5, -1.28062  C6.5, -0.850059 6.5, -0.423185 6.5, -3.55271e-15  C6.5, 0.565318 6.5, 1.13234 6.5, 1.71597  C6.5, 1.86352 6.5, 2.01107 6.5, 2.15863  C6.5, 2.30924 6.5, 2.45986 6.5, 2.61048  C6.5, 2.7648 6.5, 2.91913 6.5, 3.07345 " /><path d="M6.5 -3.07345 A7.19 7.19 0 0 0 5.91169 -4.09244" /><path d="M0.588314, -7.16589 C0.721962, -7.08873 0.855611, -7.01157 0.989259, -6.9344  C1.1197, -6.8591 1.25014, -6.78379 1.38058, -6.70848  C1.50836, -6.6347 1.63614, -6.56093 1.76393, -6.48715  C2.26937, -6.19533 2.76042, -5.91182 3.25, -5.62917  C3.61649, -5.41757 3.98617, -5.20414 4.35905, -4.98885  C4.60922, -4.84442 4.86267, -4.69809 5.11942, -4.54985  C5.24986, -4.47454 5.3803, -4.39923 5.51074, -4.32393  C5.64439, -4.24676 5.77804, -4.1696 5.91169, -4.09244 " /><path d="M0.588314 -7.16589 A7.19 7.19 0 0 0 -0.588314 -7.16589" /><path d="M-5.91169, -4.09244 C-5.77804, -4.1696 -5.64439, -4.24676 -5.51074, -4.32393  C-5.3803, -4.39923 -5.24986, -4.47454 -5.11942, -4.54985  C-4.99164, -4.62363 -4.86386, -4.6974 -4.73607, -4.77118  C-4.23063, -5.063 -3.73958, -5.34651 -3.25, -5.62917  C-2.88351, -5.84076 -2.51383, -6.05419 -2.14095, -6.26948  C-1.89078, -6.41391 -1.63733, -6.56024 -1.38058, -6.70848  C-1.25014, -6.78379 -1.1197, -6.8591 -0.989259, -6.9344  C-0.855611, -7.01157 -0.721962, -7.08873 -0.588314, -7.16589 " /><path d="M-5.91169 -4.09244 A7.19 7.19 0 0 0 -6.5 -3.07345" /><path d="M-6.5, 3.07345 C-6.5, 2.91913 -6.5, 2.7648 -6.5, 2.61048  C-6.5, 2.45986 -6.5, 2.30924 -6.5, 2.15863  C-6.5, 2.01107 -6.5, 1.86352 -6.5, 1.71597  C-6.5, 1.13234 -6.5, 0.565318 -6.5, -3.10862e-15  C-6.5, -0.565318 -6.5, -1.13234 -6.5, -1.71597  C-6.5, -1.86352 -6.5, -2.01107 -6.5, -2.15863  C-6.5, -2.30924 -6.5, -2.45986 -6.5, -2.61048  C-6.5, -2.7648 -6.5, -2.91913 -6.5, -3.07345 " /><path d="M-6.5 3.07345 A7.19 7.19 0 0 0 -5.91169 4.09244" /><path d="M-0.588314, 7.16589 C-0.721962, 7.08873 -0.855611, 7.01157 -0.989259, 6.9344  C-1.1197, 6.8591 -1.25014, 6.78379 -1.38058, 6.70848  C-1.50836, 6.6347 -1.63614, 6.56093 -1.76393, 6.48715  C-2.26937, 6.19533 -2.76042, 5.91182 -3.25, 5.62917  C-3.61649, 5.41757 -3.98617, 5.20414 -4.35905, 4.98885  C-4.60922, 4.84442 -4.86267, 4.69809 -5.11942, 4.54985  C-5.24986, 4.47454 -5.3803, 4.39923 -5.51074, 4.32393  C-5.64439, 4.24676 -5.77804, 4.1696 -5.91169, 4.09244 " /><path d="M-0.588314 7.16589 A7.19 7.19 0 0 0 -1.31695e-15 7.19" /><circle cx ="4.44089e-16" cy ="-3.10862e-15" r ="4.41667" /><circle cx ="4.44089e-16" cy ="-3.10862e-15" r ="6.4935" /><circle cx ="4.44089e-16" cy ="-3.10862e-15" r ="5.45183" /><circle cx ="4.44089e-16" cy ="-3.10862e-15" r ="6.4935" /></g>

</svg>
