<?xml version="1.0" encoding="UTF-8"?>
<svg xmlns="http://www.w3.org/2000/svg" version="1.1" width="8.600mm" height="8.600mm" viewBox="-4.300 -4.300 8.600 8.600">
<g fill="none" stroke="#000000" stroke-opacity="1" stroke-width="0.1032" stroke-linecap="butt" stroke-linejoin="miter" stroke-miterlimit="4">
<circle cx ="0" cy ="0" r ="3.8" /><path d="M1.80489e-16 -1.4738 A1.4738 1.4738 0 0 0 -3.60977e-16 1.4738" /><path d="M0 1.4738 A1.4738 1.4738 0 0 0 1.80489e-16 -1.4738" /><path d="M1.27, 0.733235 C1.27, 0.19759 1.27, -0.19759 1.27, -0.733235 " /><path d="M1.27, -0.733235 C0.806118, -1.00106 0.463882, -1.19865 1.01363e-13, -1.46647 " /><path d="M-1.02141e-13, -1.46647 C-0.463882, -1.19865 -0.806118, -1.00106 -1.27, -0.733235 " /><path d="M-1.27, -0.733235 C-1.27, -0.19759 -1.27, 0.19759 -1.27, 0.733235 " /><path d="M-1.27, 0.733235 C-0.806118, 1.00106 -0.463882, 1.19865 -1.01696e-13, 1.46647 " /><path d="M1.01667e-13, 1.46647 C0.463882, 1.19865 0.806118, 1.00106 1.27, 0.733235 " /><circle cx ="0" cy ="0" r ="0.2032" /></g>

</svg>
