<svg xmlns="http://www.w3.org/2000/svg" viewBox="0 0 10.0000 5.2420">
  <title>Ferrule</title>
  <desc>ferrule, crimp</desc>
  <path d="M0.5920,0.0000 L0.7670,0.0190 L0.9030,0.0770 L0.9610,0.0770 L1.1170,0.1360 L1.1750,0.1360 L1.2910,0.1940 L1.3690,0.1940 L1.7770,0.3300 L1.8060,0.3100 L1.8350,0.3490 L1.9510,0.3690 L2.1070,0.4270 L2.1650,0.4270 L2.2820,0.4850 L2.3400,0.4850 L2.4950,0.5430 L2.5530,0.5430 L2.6700,0.6020 L2.7480,0.6020 L2.9420,0.6790 L3.0000,0.6790 L3.4660,0.8350 L3.5240,0.8350 L3.6410,0.8930 L3.6600,0.8730 L3.6800,0.8930 L3.7960,0.9320 L3.9320,0.9510 L4.0490,1.0090 L4.1360,1.0000 L4.1260,1.0290 L4.1840,1.0090 L4.1840,1.0480 L4.3200,1.0680 L4.4370,1.1260 L4.5150,1.1260 L4.6310,1.1840 L4.7670,1.2040 L4.8450,1.2420 L4.9610,1.2620 L5.0190,1.3010 L5.0780,1.3010 L5.2330,1.3590 L5.2910,1.3590 L5.4660,1.2420 L5.5050,1.2420 L5.5440,1.2040 L5.5830,1.2040 L5.7180,1.1260 L5.7770,1.1260 L5.8160,1.0870 L5.9320,1.0480 L5.9900,1.0480 L6.0680,1.0090 L6.1260,1.0090 L6.1840,0.9710 L6.4370,0.9320 L6.4710,0.9560 L6.5340,0.9510 L6.6890,1.0290 L6.7480,1.0290 L6.8830,1.0870 L6.9420,1.0870 L7.1550,1.1840 L7.2140,1.1840 L7.5240,1.3010 L7.5830,1.3010 L7.6600,1.3390 L7.8740,1.3780 L7.9320,1.4170 L8.0680,1.4370 L8.3010,1.5140 L8.3250,1.4960 L8.3400,1.5140 L8.5730,1.5920 L8.6500,1.5920 L8.8060,1.6500 L8.8640,1.6500 L8.9420,1.6890 L9.1550,1.7280 L9.2330,1.7670 L9.4660,1.7470 L9.5920,1.8350 L9.5920,1.8640 L9.6500,1.8640 L9.6520,1.9030 L9.6800,1.9030 L9.6990,1.9220 L9.7280,1.9120 L9.8640,2.1650 L9.8830,2.3590 L9.9030,2.3780 L9.9220,2.5140 L9.9810,2.6310 L9.9790,2.7050 L10.0000,2.7280 L10.0000,2.9030 L9.9810,2.9220 L9.9810,3.0190 L9.9420,3.0970 L9.9420,3.1740 L9.9030,3.2710 L9.9030,3.3490 L9.8640,3.4270 L9.8640,3.5040 L9.8250,3.5820 L9.8250,3.6790 L9.7860,3.7180 L9.7670,3.8540 L9.7090,3.9320 L9.6700,4.0480 L9.6310,4.0870 L9.5530,4.2420 L9.5530,4.2810 L9.4760,4.3980 L9.4560,4.4750 L9.3870,4.5720 L9.3400,4.6890 L9.1260,4.9800 L9.1260,5.0090 L9.0910,5.0060 L9.0870,5.0380 L8.9710,5.1360 L8.9680,5.1680 L8.9320,5.1650 L8.9320,5.2040 L8.8830,5.2040 L8.7860,5.2420 L8.7280,5.2230 L8.7090,5.2420 L8.6890,5.2230 L8.6120,5.2230 L8.4950,5.1650 L8.4560,5.1650 L8.4170,5.1260 L8.2620,5.1060 L8.2040,5.0680 L8.0680,5.0480 L7.9320,4.9900 L7.8540,4.9900 L7.7380,4.9320 L7.6600,4.9320 L7.5240,4.8730 L7.4660,4.8730 L7.4470,4.8540 L7.1550,4.7960 L7.0780,4.7570 L7.0190,4.7570 L6.9030,4.6990 L6.7860,4.6990 L6.6700,4.6400 L6.6120,4.6400 L6.5920,4.6210 L6.3010,4.5630 L6.2430,4.5240 L6.0870,4.5040 L6.0290,4.4660 L5.9130,4.4660 L5.8930,4.4460 L5.7570,4.4270 L5.7150,4.3920 L5.6410,4.3880 L5.4660,4.2710 L5.4370,4.2710 L5.4370,4.2330 L5.4010,4.2360 L5.3980,4.2040 L5.2430,4.0290 L5.2040,3.9220 L5.1460,3.8930 L5.0720,3.7620 L4.9710,3.6600 L4.9710,3.6110 L4.9320,3.6110 L4.9260,3.5690 L4.8930,3.5720 L4.8930,3.5240 L4.8060,3.4170 L4.5730,3.3010 L4.3980,3.2810 L4.2820,3.2230 L4.0870,3.1840 L3.9710,3.1260 L3.8160,3.1060 L3.6990,3.0480 L3.6210,3.0480 L3.3690,2.9510 L3.2330,2.9320 L3.1940,2.8930 L3.1170,2.8930 L3.0190,2.8350 L2.9030,2.8350 L2.8250,2.7960 L2.7670,2.7960 L2.7090,2.7570 L2.6500,2.7570 L2.3590,2.6600 L2.3010,2.6600 L2.1840,2.6020 L2.1070,2.6020 L2.0290,2.5630 L1.9420,2.5630 L1.9460,2.5340 L1.9330,2.5170 L1.8540,2.5240 L1.7960,2.4850 L1.7180,2.4850 L1.5830,2.4270 L1.4470,2.4070 L1.3880,2.3690 L1.3300,2.3690 L1.2520,2.3300 L1.1750,2.3300 L1.0780,2.2710 L0.8640,2.2330 L0.7280,2.1740 L0.6700,2.1740 L0.5340,2.1160 L0.4760,2.1160 L0.3400,2.0580 L0.2820,2.0580 L0.1170,1.9120 L0.0390,1.7760 L0.0390,1.6990 L0.0020,1.6670 L0.0000,1.6020 L0.0190,1.6020 L0.0320,1.6620 L0.0490,1.6700 L0.0580,1.6400 L0.0000,1.4660 L0.0190,1.4460 L0.0190,1.2520 L0.0390,1.2330 L0.0190,1.1940 L0.0390,1.1740 L0.0390,1.0970 L0.0970,0.9220 L0.0970,0.8250 L0.1360,0.7470 L0.1550,0.6110 L0.2140,0.5140 L0.1940,0.4850 L0.2330,0.4560 L0.3880,0.1840 Z" fill="#000000" fill-rule="evenodd"/>
</svg>
