<svg xmlns="http://www.w3.org/2000/svg" viewBox="0 0 10.0000 7.8199">
  <title>Ferrule</title>
  <desc>ferrule, crimp</desc>
  <path d="M7.2900,7.7872 L7.2359,7.7683 L7.1571,7.7327 L7.0507,7.6788 L6.9138,7.6048 L6.7433,7.5094 L6.5364,7.3907 L6.2901,7.2474 L6.0015,7.0778 L5.9129,7.0261 L5.8035,6.9625 L5.6776,6.8895 L5.5395,6.8094 L5.3936,6.7249 L5.2441,6.6384 L5.0955,6.5524 L4.9520,6.4694 L4.6688,6.3065 L4.4533,6.1817 L4.2942,6.0876 L4.1802,6.0170 L4.1001,5.9626 L4.0426,5.9172 L3.9965,5.8733 L3.9504,5.8238 L3.8792,5.7377 L3.8150,5.6413 L3.7580,5.5349 L3.7083,5.4186 L3.6659,5.2929 L3.6309,5.1580 L3.6035,5.0142 L3.5837,4.8620 L3.5651,4.6760 L3.3101,4.5246 L2.8555,4.2593 L2.4391,4.0166 L2.0594,3.7956 L1.7147,3.5953 L1.4033,3.4147 L1.1237,3.2528 L0.8742,3.1085 L0.6532,2.9809 L0.5279,2.9073 L0.4233,2.8403 L0.3368,2.7774 L0.2660,2.7163 L0.2084,2.6545 L0.1616,2.5898 L0.1229,2.5196 L0.0900,2.4416 L0.0515,2.3227 L0.0237,2.2011 L0.0065,2.0770 L0.0000,1.9504 L0.0040,1.8215 L0.0186,1.6903 L0.0438,1.5569 L0.0794,1.4214 L0.1064,1.3411 L0.1438,1.2473 L0.1892,1.1448 L0.2401,1.0388 L0.2940,0.9343 L0.3484,0.8363 L0.4008,0.7499 L0.4487,0.6801 L0.5148,0.5950 L0.5902,0.5100 L0.6728,0.4270 L0.7602,0.3477 L0.8504,0.2737 L0.9411,0.2067 L1.0302,0.1486 L1.1155,0.1009 L1.1819,0.0691 L1.2367,0.0448 L1.2843,0.0270 L1.3294,0.0146 L1.3765,0.0067 L1.4301,0.0023 L1.4948,0.0004 L1.5752,0.0000 L1.6591,0.0003 L1.7252,0.0022 L1.7787,0.0068 L1.8249,0.0156 L1.8691,0.0297 L1.9167,0.0504 L1.9728,0.0790 L2.0428,0.1169 L2.0890,0.1431 L2.1388,0.1715 L2.1907,0.2013 L2.2430,0.2314 L2.2943,0.2613 L2.3428,0.2899 L2.3870,0.3164 L2.4254,0.3400 L2.4702,0.3664 L2.5314,0.4026 L2.6061,0.4468 L2.6917,0.4975 L2.7855,0.5528 L2.8849,0.6113 L2.9871,0.6711 L3.0896,0.7306 L3.1973,0.7930 L3.3147,0.8612 L3.4379,0.9329 L3.5631,1.0059 L3.6867,1.0781 L3.8047,1.1472 L3.9133,1.2110 L4.0088,1.2673 L4.1018,1.3222 L4.2032,1.3822 L4.3098,1.4453 L4.4183,1.5094 L4.5254,1.5726 L4.6279,1.6331 L4.7225,1.6887 L4.8059,1.7375 L5.1778,1.9581 L5.4037,1.8810 L5.4728,1.8587 L5.5334,1.8414 L5.5900,1.8283 L5.6468,1.8189 L5.7080,1.8126 L5.7780,1.8089 L5.8611,1.8071 L5.9616,1.8066 L6.0954,1.8068 L6.2038,1.8122 L6.3049,1.8304 L6.4166,1.8691 L6.5570,1.9356 L6.7440,2.0375 L6.9956,2.1824 L7.3299,2.3778 L8.1352,2.8470 L8.7354,3.1988 L9.1629,3.4550 L9.4500,3.6372 L9.6290,3.7671 L9.7322,3.8663 L9.7920,3.9566 L9.8406,4.0596 L9.8810,4.1505 L9.9148,4.2390 L9.9424,4.3265 L9.9641,4.4146 L9.9804,4.5049 L9.9915,4.5987 L9.9979,4.6978 L10.0000,4.8035 L9.9819,5.1047 L9.9289,5.4112 L9.8429,5.7186 L9.7260,6.0224 L9.5801,6.3179 L9.4071,6.6006 L9.2090,6.8661 L8.9877,7.1097 L8.7751,7.3045 L8.5573,7.4700 L8.3371,7.6049 L8.1170,7.7084 L7.8996,7.7794 L7.6876,7.8169 L7.4835,7.8198 L7.2900,7.7872 ZM8.1110,7.4391 L8.5146,7.1909 L8.8778,6.8584 L9.1907,6.4623 L9.4434,6.0233 L9.6258,5.5621 L9.7280,5.0991 L9.7400,4.6552 L9.6520,4.2509 L9.6166,4.1682 L9.5740,4.0932 L9.5207,4.0226 L9.4530,3.9533 L9.3676,3.8821 L9.2608,3.8056 L9.1291,3.7206 L8.9691,3.6239 L8.3857,3.2807 L7.9320,3.0140 L7.5919,2.8144 L7.3495,2.6724 L7.1886,2.5786 L7.0932,2.5236 L7.0474,2.4979 L7.0350,2.4921 L7.0349,2.4969 L7.0368,2.5089 L7.0402,2.5272 L7.0453,2.5509 L7.0517,2.5792 L7.0593,2.6113 L7.0679,2.6463 L7.0775,2.6834 L7.1168,2.8824 L7.1335,3.0968 L7.1282,3.3232 L7.1014,3.5581 L7.0537,3.7983 L6.9856,4.0404 L6.8977,4.2809 L6.7905,4.5166 L6.6321,4.8066 L6.4583,5.0722 L6.2703,5.3124 L6.0692,5.5262 L5.8562,5.7126 L5.6323,5.8706 L5.3988,5.9992 L5.1566,6.0974 L4.9440,6.1691 L5.1406,6.2834 L5.1961,6.3159 L5.2783,6.3640 L5.3831,6.4253 L5.5066,6.4976 L5.6448,6.5785 L5.7937,6.6656 L5.9494,6.7567 L6.1077,6.8493 L6.4560,7.0538 L6.7327,7.2146 L6.9479,7.3369 L7.1120,7.4262 L7.2353,7.4876 L7.3280,7.5267 L7.4004,7.5486 L7.4627,7.5587 L7.5429,7.5638 L7.6238,7.5632 L7.7052,7.5568 L7.7869,7.5447 L7.8685,7.5269 L7.9499,7.5034 L8.0308,7.4741 L8.1110,7.4391 ZM5.1725,5.8344 L5.3580,5.7475 L5.5456,5.6307 L5.7317,5.4874 L5.9131,5.3209 L6.0863,5.1348 L6.2478,4.9325 L6.3942,4.7173 L6.5222,4.4927 L6.6346,4.2566 L6.7267,4.0237 L6.7981,3.7950 L6.8487,3.5721 L6.8782,3.3561 L6.8865,3.1484 L6.8733,2.9503 L6.8384,2.7631 L6.8025,2.6420 L6.7604,2.5335 L6.7116,2.4368 L6.6554,2.3513 L6.5913,2.2762 L6.5189,2.2109 L6.4376,2.1547 L6.3468,2.1068 L6.3082,2.0905 L6.2708,2.0771 L6.2329,2.0665 L6.1928,2.0584 L6.1486,2.0525 L6.0988,2.0486 L6.0414,2.0464 L5.9749,2.0457 L5.9247,2.0465 L5.8728,2.0486 L5.8207,2.0519 L5.7700,2.0564 L5.7221,2.0618 L5.6786,2.0681 L5.6410,2.0752 L5.6109,2.0829 L5.4834,2.1201 L5.5923,2.2237 L5.6695,2.3127 L5.7354,2.4165 L5.7894,2.5331 L5.8308,2.6601 L5.8589,2.7954 L5.8733,2.9366 L5.8732,3.0816 L5.8580,3.2280 L5.8419,3.3246 L5.8230,3.4149 L5.8003,3.5015 L5.7730,3.5870 L5.7402,3.6742 L5.7011,3.7657 L5.6547,3.8640 L5.6003,3.9719 L5.5105,4.1268 L5.4031,4.2781 L5.2820,4.4224 L5.1509,4.5561 L5.0138,4.6758 L4.8743,4.7778 L4.7365,4.8588 L4.6040,4.9151 L4.5281,4.9359 L4.4475,4.9504 L4.3642,4.9587 L4.2805,4.9606 L4.1985,4.9562 L4.1205,4.9454 L4.0486,4.9282 L3.9849,4.9045 L3.9585,4.8931 L3.9334,4.8828 L3.9102,4.8739 L3.8896,4.8666 L3.8721,4.8611 L3.8583,4.8574 L3.8487,4.8559 L3.8441,4.8567 L3.8414,4.8825 L3.8481,4.9369 L3.8622,5.0119 L3.8820,5.0998 L3.9054,5.1926 L3.9308,5.2826 L3.9561,5.3619 L3.9796,5.4226 L4.0162,5.4906 L4.0628,5.5596 L4.1171,5.6273 L4.1769,5.6916 L4.2399,5.7501 L4.3039,5.8007 L4.3667,5.8410 L4.4260,5.8689 L4.4970,5.8881 L4.5837,5.9001 L4.6813,5.9052 L4.7853,5.9035 L4.8910,5.8953 L4.9939,5.8809 L5.0892,5.8605 L5.1725,5.8344 ZM4.6438,4.6255 L4.7958,4.5342 L4.9462,4.4115 L5.0910,4.2631 L5.2260,4.0948 L5.3472,3.9123 L5.4505,3.7214 L5.5318,3.5277 L5.5870,3.3370 L5.5999,3.2602 L5.6089,3.1755 L5.6139,3.0862 L5.6149,2.9956 L5.6119,2.9069 L5.6049,2.8236 L5.5940,2.7489 L5.5790,2.6860 L5.5535,2.6121 L5.5219,2.5471 L5.4797,2.4870 L5.4226,2.4277 L5.3462,2.3651 L5.2461,2.2952 L5.1180,2.2140 L4.9573,2.1175 L4.6419,1.9309 L4.2533,1.7018 L3.8269,1.4510 L3.3981,1.1992 L3.0023,0.9672 L2.6749,0.7758 L2.4513,0.6457 L2.3669,0.5978 L2.3659,0.6052 L2.3650,0.6266 L2.3641,0.6605 L2.3633,0.7054 L2.3626,0.7597 L2.3621,0.8219 L2.3617,0.8907 L2.3616,0.9644 L2.3611,1.0739 L2.3594,1.1642 L2.3557,1.2398 L2.3496,1.3051 L2.3406,1.3648 L2.3280,1.4232 L2.3113,1.4848 L2.2899,1.5542 L2.2118,1.7592 L2.1111,1.9593 L1.9907,2.1509 L1.8538,2.3303 L1.7033,2.4939 L1.5423,2.6381 L1.3737,2.7591 L1.2006,2.8534 L1.0491,2.9225 L1.7319,3.3184 L1.8832,3.4071 L2.0521,3.5058 L2.2331,3.6113 L2.4204,3.7202 L2.6083,3.8294 L2.7911,3.9356 L2.9632,4.0355 L3.1188,4.1260 L3.4816,4.3384 L3.7472,4.4931 L3.9337,4.5991 L4.0593,4.6654 L4.1420,4.7007 L4.2000,4.7141 L4.2514,4.7144 L4.3144,4.7105 L4.3598,4.7069 L4.4028,4.7017 L4.4441,4.6948 L4.4841,4.6860 L4.5235,4.6748 L4.5628,4.6612 L4.6027,4.6449 L4.6438,4.6255 ZM1.0093,2.6568 L1.1334,2.6082 L1.2608,2.5363 L1.3882,2.4440 L1.5127,2.3343 L1.6313,2.2104 L1.7408,2.0751 L1.8383,1.9315 L1.9206,1.7827 L1.9749,1.6664 L2.0190,1.5619 L2.0538,1.4655 L2.0803,1.3732 L2.0995,1.2814 L2.1122,1.1860 L2.1196,1.0834 L2.1225,0.9697 L2.1219,0.8895 L2.1200,0.8224 L2.1165,0.7661 L2.1109,0.7180 L2.1029,0.6756 L2.0922,0.6364 L2.0785,0.5980 L2.0614,0.5579 L2.0319,0.4978 L2.0027,0.4464 L1.9725,0.4027 L1.9405,0.3656 L1.9054,0.3341 L1.8663,0.3072 L1.8221,0.2838 L1.7718,0.2630 L1.6104,0.2295 L1.4384,0.2442 L1.2604,0.3041 L1.0813,0.4058 L0.9058,0.5461 L0.7387,0.7218 L0.5847,0.9296 L0.4487,1.1663 L0.3962,1.2780 L0.3523,1.3865 L0.3167,1.4929 L0.2893,1.5984 L0.2698,1.7040 L0.2581,1.8108 L0.2540,1.9199 L0.2574,2.0324 L0.2677,2.1507 L0.2869,2.2566 L0.3151,2.3506 L0.3524,2.4330 L0.3988,2.5041 L0.4547,2.5645 L0.5199,2.6144 L0.5948,2.6541 L0.6402,2.6708 L0.6868,2.6830 L0.7350,2.6905 L0.7851,2.6933 L0.8373,2.6915 L0.8918,2.6848 L0.9491,2.6733 L1.0093,2.6568 ZM0.6878,2.5160 L0.6376,2.4886 L0.5890,2.4547 L0.5428,2.4150 L0.4995,2.3702 L0.4598,2.3211 L0.4244,2.2683 L0.3939,2.2126 L0.3690,2.1547 L0.3474,2.0762 L0.3342,1.9799 L0.3291,1.8709 L0.3318,1.7545 L0.3419,1.6360 L0.3593,1.5206 L0.3834,1.4137 L0.4141,1.3204 L0.4816,1.1700 L0.5566,1.0315 L0.6389,0.9050 L0.7286,0.7904 L0.8257,0.6878 L0.9301,0.5971 L1.0418,0.5184 L1.1607,0.4516 L1.2214,0.4223 L1.2720,0.3994 L1.3151,0.3826 L1.3537,0.3709 L1.3903,0.3639 L1.4278,0.3608 L1.4691,0.3611 L1.5167,0.3640 L1.6303,0.3825 L1.7317,0.4199 L1.8202,0.4755 L1.8953,0.5486 L1.9565,0.6387 L2.0032,0.7450 L2.0348,0.8671 L2.0507,1.0043 L2.0540,1.1012 L2.0515,1.1924 L2.0425,1.2805 L2.0265,1.3679 L2.0029,1.4572 L1.9712,1.5509 L1.9306,1.6514 L1.8807,1.7615 L1.7680,1.9641 L1.6330,2.1431 L1.4818,2.2949 L1.3201,2.4157 L1.1540,2.5019 L0.9893,2.5498 L0.8319,2.5557 L0.6878,2.5160 ZM1.1155,2.2556 L1.1395,2.2424 L1.1688,2.2234 L1.2023,2.1994 L1.2387,2.1713 L1.2771,2.1399 L1.3162,2.1062 L1.3548,2.0710 L1.3919,2.0351 L1.5343,1.8669 L1.6496,1.6824 L1.7362,1.4893 L1.7924,1.2955 L1.8164,1.1088 L1.8066,0.9370 L1.7613,0.7880 L1.6788,0.6695 L1.6542,0.6456 L1.6329,0.6274 L1.6129,0.6143 L1.5924,0.6057 L1.5695,0.6012 L1.5420,0.6000 L1.5083,0.6017 L1.4662,0.6057 L1.2935,0.6546 L1.1261,0.7534 L0.9701,0.8935 L0.8316,1.0660 L0.7166,1.2622 L0.6312,1.4733 L0.5815,1.6904 L0.5735,1.9049 L0.5920,2.0336 L0.6254,2.1387 L0.6731,2.2197 L0.7349,2.2765 L0.8105,2.3088 L0.8993,2.3163 L1.0011,2.2986 L1.1155,2.2556 Z" fill="#000000" fill-rule="evenodd"/>
</svg>
