<svg xmlns="http://www.w3.org/2000/svg" viewBox="0 0 24 24">
  <title>Ferrule</title>
  <desc>ferrule, crimp</desc>
  <path d="M17.4960,23.8996 L17.3662,23.8416 L17.1770,23.7324 L16.9217,23.5670 L16.5931,23.3398 L16.1839,23.0470 L15.6874,22.6827 L15.0962,22.2429 L14.4036,21.7224 L14.1910,21.5638 L13.9284,21.3686 L13.6262,21.1445 L13.2948,20.8987 L12.9446,20.6393 L12.5858,20.3739 L12.2292,20.1099 L11.8848,19.8552 L11.2051,19.3552 L10.6879,18.9722 L10.3061,18.6834 L10.0325,18.4667 L9.8402,18.2998 L9.7022,18.1604 L9.5916,18.0257 L9.4810,17.8738 L9.3101,17.6095 L9.1560,17.3137 L9.0192,16.9871 L8.8999,16.6302 L8.7982,16.2444 L8.7142,15.8304 L8.6484,15.3890 L8.6009,14.9219 L8.5562,14.3511 L7.9442,13.8864 L6.8532,13.0722 L5.8538,12.3273 L4.9426,11.6490 L4.1153,11.0343 L3.3679,10.4800 L2.6969,9.9831 L2.0981,9.5403 L1.5677,9.1487 L1.2670,8.9228 L1.0159,8.7171 L0.8083,8.5241 L0.6384,8.3366 L0.5002,8.1469 L0.3878,7.9483 L0.2950,7.7329 L0.2160,7.4935 L0.1236,7.1286 L0.0569,6.7554 L0.0156,6.3745 L0.0000,5.9860 L0.0096,5.5904 L0.0446,5.1877 L0.1051,4.7783 L0.1906,4.3624 L0.2554,4.1160 L0.3451,3.8281 L0.4541,3.5135 L0.5762,3.1882 L0.7056,2.8675 L0.8362,2.5667 L0.9619,2.3015 L1.0769,2.0873 L1.2355,1.8261 L1.4165,1.5652 L1.6147,1.3105 L1.8245,1.0671 L2.0410,0.8400 L2.2586,0.6344 L2.4725,0.4561 L2.6772,0.3097 L2.8366,0.2121 L2.9681,0.1375 L3.0823,0.0829 L3.1906,0.0448 L3.3036,0.0206 L3.4322,0.0071 L3.5875,0.0012 L3.7805,0.0000 L3.9818,0.0009 L4.1405,0.0068 L4.2689,0.0209 L4.3798,0.0479 L4.4858,0.0912 L4.6001,0.1547 L4.7347,0.2425 L4.9027,0.3588 L5.0136,0.4392 L5.1331,0.5263 L5.2577,0.6178 L5.3832,0.7102 L5.5063,0.8020 L5.6227,0.8897 L5.7288,0.9711 L5.8210,1.0435 L5.9285,1.1245 L6.0754,1.2356 L6.2546,1.3713 L6.4601,1.5269 L6.6852,1.6966 L6.9238,1.8761 L7.1690,2.0597 L7.4150,2.2423 L7.6735,2.4338 L7.9553,2.6431 L8.2510,2.8632 L8.5514,3.0872 L8.8481,3.3088 L9.1313,3.5209 L9.3919,3.7167 L9.6211,3.8895 L9.8443,4.0580 L10.0877,4.2421 L10.3435,4.4358 L10.6039,4.6325 L10.8610,4.8265 L11.1070,5.0121 L11.3340,5.1828 L11.5342,5.3325 L12.4267,6.0096 L12.9689,5.7730 L13.1347,5.7045 L13.2802,5.6514 L13.4160,5.6112 L13.5523,5.5824 L13.6992,5.5630 L13.8672,5.5517 L14.0666,5.5462 L14.3078,5.5446 L14.6290,5.5452 L14.8891,5.5618 L15.1318,5.6177 L15.3998,5.7364 L15.7368,5.9405 L16.1856,6.2533 L16.7894,6.6980 L17.5918,7.2977 L19.5245,8.7377 L20.9650,9.8174 L21.9910,10.6037 L22.6800,11.1629 L23.1096,11.5616 L23.3573,11.8660 L23.5008,12.1432 L23.6174,12.4593 L23.7144,12.7383 L23.7955,13.0099 L23.8618,13.2784 L23.9138,13.5488 L23.9530,13.8260 L23.9796,14.1138 L23.9950,14.4180 L24.0000,14.7424 L23.9566,15.6668 L23.8294,16.6075 L23.6230,17.5509 L23.3424,18.4833 L22.9922,19.3902 L22.5770,20.2579 L22.1016,21.0727 L21.5705,21.8203 L21.0602,22.4182 L20.5375,22.9261 L20.0090,23.3401 L19.4808,23.6578 L18.9590,23.8757 L18.4502,23.9908 L17.9604,23.9997 L17.4960,23.8996 ZM19.4664,22.8313 L20.4350,22.0695 L21.3067,21.0491 L22.0577,19.8334 L22.6642,18.4861 L23.1019,17.0706 L23.3472,15.6496 L23.3760,14.2872 L23.1648,13.0464 L23.0798,12.7926 L22.9776,12.5624 L22.8497,12.3457 L22.6872,12.1330 L22.4822,11.9145 L22.2259,11.6797 L21.9098,11.4189 L21.5258,11.1221 L20.1257,10.0688 L19.0368,9.2502 L18.2206,8.6377 L17.6388,8.2018 L17.2526,7.9140 L17.0237,7.7452 L16.9138,7.6663 L16.8840,7.6485 L16.8838,7.6632 L16.8883,7.7000 L16.8965,7.7562 L16.9087,7.8289 L16.9241,7.9158 L16.9423,8.0143 L16.9630,8.1217 L16.9860,8.2356 L17.0803,8.8464 L17.1204,9.5044 L17.1077,10.1992 L17.0434,10.9201 L16.9289,11.6573 L16.7654,12.4004 L16.5545,13.1385 L16.2972,13.8619 L15.9170,14.7519 L15.4999,15.5671 L15.0487,16.3042 L14.5661,16.9604 L14.0549,17.5325 L13.5175,18.0174 L12.9571,18.4121 L12.3758,18.7135 L11.8656,18.9335 L12.3374,19.2843 L12.4706,19.3841 L12.6679,19.5317 L12.9194,19.7198 L13.2158,19.9417 L13.5475,20.1900 L13.9049,20.4573 L14.2786,20.7369 L14.6585,21.0211 L15.4944,21.6488 L16.1585,22.1423 L16.6750,22.5176 L17.0688,22.7917 L17.3647,22.9801 L17.5872,23.1001 L17.7610,23.1674 L17.9105,23.1984 L18.1030,23.2140 L18.2971,23.2122 L18.4925,23.1925 L18.6886,23.1554 L18.8844,23.1008 L19.0798,23.0286 L19.2739,22.9387 L19.4664,22.8313 ZM12.4140,17.9063 L12.8592,17.6396 L13.3094,17.2811 L13.7561,16.8413 L14.1914,16.3303 L14.6071,15.7592 L14.9947,15.1383 L15.3461,14.4778 L15.6533,13.7885 L15.9230,13.0639 L16.1441,12.3491 L16.3154,11.6472 L16.4369,10.9631 L16.5077,10.3002 L16.5276,9.6627 L16.4959,9.0547 L16.4122,8.4802 L16.3260,8.1085 L16.2250,7.7755 L16.1078,7.4788 L15.9730,7.2164 L15.8191,6.9859 L15.6454,6.7855 L15.4502,6.6130 L15.2323,6.4660 L15.1397,6.4159 L15.0499,6.3748 L14.9590,6.3423 L14.8627,6.3174 L14.7566,6.2993 L14.6371,6.2873 L14.4994,6.2806 L14.3398,6.2784 L14.2193,6.2809 L14.0947,6.2873 L13.9697,6.2975 L13.8480,6.3113 L13.7330,6.3279 L13.6286,6.3472 L13.5384,6.3690 L13.4662,6.3926 L13.1602,6.5068 L13.4215,6.8247 L13.6068,7.0979 L13.7650,7.4165 L13.8946,7.7743 L13.9939,8.1641 L14.0614,8.5793 L14.0959,9.0127 L14.0957,9.4577 L14.0592,9.9070 L14.0206,10.2035 L13.9752,10.4806 L13.9207,10.7464 L13.8552,11.0088 L13.7765,11.2765 L13.6826,11.5573 L13.5713,11.8590 L13.4407,12.1901 L13.2252,12.6655 L12.9674,13.1299 L12.6768,13.5728 L12.3622,13.9831 L12.0331,14.3505 L11.6983,14.6635 L11.3676,14.9121 L11.0496,15.0849 L10.8674,15.1487 L10.6740,15.1932 L10.4741,15.2187 L10.2732,15.2245 L10.0764,15.2110 L9.8892,15.1779 L9.7166,15.1251 L9.5638,15.0524 L9.5004,15.0174 L9.4402,14.9858 L9.3845,14.9585 L9.3350,14.9360 L9.2930,14.9192 L9.2599,14.9078 L9.2369,14.9032 L9.2258,14.9057 L9.2194,14.9848 L9.2354,15.1518 L9.2693,15.3820 L9.3168,15.6518 L9.3730,15.9366 L9.4339,16.2128 L9.4946,16.4562 L9.5510,16.6425 L9.6389,16.8512 L9.7507,17.0629 L9.8810,17.2707 L10.0246,17.4680 L10.1758,17.6476 L10.3294,17.8029 L10.4801,17.9266 L10.6224,18.0122 L10.7928,18.0711 L11.0009,18.1080 L11.2351,18.1236 L11.4847,18.1184 L11.7384,18.0932 L11.9854,18.0490 L12.2141,17.9864 L12.4140,17.9063 ZM11.1451,14.1961 L11.5099,13.9159 L11.8709,13.5393 L12.2184,13.0839 L12.5424,12.5673 L12.8333,12.0072 L13.0812,11.4213 L13.2763,10.8268 L13.4088,10.2416 L13.4398,10.0059 L13.4614,9.7459 L13.4734,9.4718 L13.4758,9.1938 L13.4686,8.9215 L13.4518,8.6659 L13.4256,8.4366 L13.3896,8.2436 L13.3284,8.0168 L13.2526,7.8173 L13.1513,7.6328 L13.0142,7.4508 L12.8309,7.2587 L12.5906,7.0442 L12.2832,6.7950 L11.8975,6.4988 L11.1406,5.9261 L10.2079,5.2230 L9.1846,4.4533 L8.1554,3.6805 L7.2055,2.9684 L6.4198,2.3810 L5.8831,1.9817 L5.6806,1.8347 L5.6782,1.8574 L5.6760,1.9231 L5.6738,2.0271 L5.6719,2.1649 L5.6702,2.3316 L5.6690,2.5225 L5.6681,2.7336 L5.6678,2.9598 L5.6666,3.2959 L5.6626,3.5730 L5.6537,3.8051 L5.6390,4.0055 L5.6174,4.1887 L5.5872,4.3679 L5.5471,4.5570 L5.4958,4.7700 L5.3083,5.3991 L5.0666,6.0133 L4.7777,6.6013 L4.4491,7.1519 L4.0879,7.6540 L3.7015,8.0966 L3.2969,8.4679 L2.8814,8.7573 L2.5178,8.9694 L4.1566,10.1845 L4.5197,10.4567 L4.9250,10.7596 L5.3594,11.0834 L5.8090,11.4176 L6.2599,11.7528 L6.6986,12.0787 L7.1117,12.3853 L7.4851,12.6631 L8.3558,13.3150 L8.9933,13.7897 L9.4409,14.1151 L9.7423,14.3185 L9.9408,14.4269 L10.0800,14.4680 L10.2034,14.4689 L10.3546,14.4570 L10.4635,14.4459 L10.5667,14.4300 L10.6658,14.4088 L10.7618,14.3818 L10.8564,14.3474 L10.9507,14.3057 L11.0465,14.2556 L11.1451,14.1961 ZM2.4223,8.1540 L2.7202,8.0048 L3.0259,7.7841 L3.3317,7.5009 L3.6305,7.1642 L3.9151,6.7839 L4.1779,6.3687 L4.4119,5.9280 L4.6094,5.4713 L4.7398,5.1143 L4.8456,4.7936 L4.9291,4.4978 L4.9927,4.2145 L5.0388,3.9327 L5.0693,3.6399 L5.0870,3.3251 L5.0940,2.9761 L5.0926,2.7300 L5.0880,2.5240 L5.0796,2.3512 L5.0662,2.2036 L5.0470,2.0735 L5.0213,1.9532 L4.9884,1.8353 L4.9474,1.7122 L4.8766,1.5278 L4.8065,1.3700 L4.7340,1.2359 L4.6572,1.1221 L4.5730,1.0254 L4.4791,0.9428 L4.3730,0.8710 L4.2523,0.8072 L3.8650,0.7044 L3.4522,0.7495 L3.0250,0.9333 L2.5951,1.2454 L2.1739,1.6760 L1.7729,2.2153 L1.4033,2.8530 L1.0769,3.5795 L0.9509,3.9223 L0.8455,4.2553 L0.7601,4.5818 L0.6943,4.9056 L0.6475,5.2297 L0.6194,5.5575 L0.6096,5.8924 L0.6178,6.2376 L0.6425,6.6007 L0.6886,6.9257 L0.7562,7.2142 L0.8458,7.4671 L0.9571,7.6853 L1.0913,7.8707 L1.2478,8.0238 L1.4275,8.1457 L1.5365,8.1969 L1.6483,8.2344 L1.7640,8.2574 L1.8842,8.2660 L2.0095,8.2605 L2.1403,8.2399 L2.2778,8.2046 L2.4223,8.1540 ZM1.6507,7.7218 L1.5302,7.6377 L1.4136,7.5337 L1.3027,7.4119 L1.1988,7.2744 L1.1035,7.1237 L1.0186,6.9616 L0.9454,6.7907 L0.8856,6.6130 L0.8338,6.3721 L0.8021,6.0765 L0.7898,5.7420 L0.7963,5.3847 L0.8206,5.0210 L0.8623,4.6669 L0.9202,4.3388 L0.9938,4.0524 L1.1558,3.5908 L1.3358,3.1658 L1.5334,2.7775 L1.7486,2.4258 L1.9817,2.1109 L2.2322,1.8326 L2.5003,1.5910 L2.7857,1.3860 L2.9314,1.2961 L3.0528,1.2258 L3.1562,1.1742 L3.2489,1.1383 L3.3367,1.1168 L3.4267,1.1073 L3.5258,1.1082 L3.6401,1.1171 L3.9127,1.1739 L4.1561,1.2887 L4.3685,1.4594 L4.5487,1.6837 L4.6956,1.9602 L4.8077,2.2865 L4.8835,2.6612 L4.9217,3.0823 L4.9296,3.3797 L4.9236,3.6596 L4.9020,3.9300 L4.8636,4.1982 L4.8070,4.4723 L4.7309,4.7599 L4.6334,5.0683 L4.5137,5.4062 L4.2432,6.0280 L3.9192,6.5774 L3.5563,7.0433 L3.1682,7.4140 L2.7696,7.6786 L2.3743,7.8256 L1.9966,7.8437 L1.6507,7.7218 ZM2.6772,6.9226 L2.7348,6.8821 L2.8051,6.8238 L2.8855,6.7502 L2.9729,6.6639 L3.0650,6.5676 L3.1589,6.4641 L3.2515,6.3561 L3.3406,6.2459 L3.6823,5.7297 L3.9590,5.1634 L4.1669,4.5708 L4.3018,3.9760 L4.3594,3.4030 L4.3358,2.8757 L4.2271,2.4184 L4.0291,2.0548 L3.9701,1.9814 L3.9190,1.9255 L3.8710,1.8853 L3.8218,1.8589 L3.7668,1.8451 L3.7008,1.8415 L3.6199,1.8467 L3.5189,1.8589 L3.1044,2.0090 L2.7026,2.3123 L2.3282,2.7422 L1.9958,3.2717 L1.7198,3.8738 L1.5149,4.5217 L1.3956,5.1880 L1.3764,5.8463 L1.4208,6.2413 L1.5010,6.5639 L1.6154,6.8125 L1.7638,6.9868 L1.9452,7.0859 L2.1583,7.1089 L2.4026,7.0546 L2.6772,6.9226 Z" fill="#000000" fill-rule="evenodd"/>
</svg>
